<svg width="710" height="460" viewBox="0 0 710 460" fill="none" xmlns="http://www.w3.org/2000/svg">
<path d="M710 0H0V460H710V0Z" fill="#CCE6F4"/>
<path fill-rule="evenodd" clip-rule="evenodd" d="M315.732 135.629C316.143 131.384 316.558 127.139 316.969 122.894C311.685 121.023 306.4 119.152 301.105 117.277C298.551 121.441 296.004 125.594 293.453 129.754C300.954 131.449 308.14 134.442 315.732 135.629Z" fill="#BEAF8F"/>
<path fill-rule="evenodd" clip-rule="evenodd" d="M290.167 135.112C280.614 150.688 271.07 166.25 261.52 181.821C277.336 188.332 293.584 193.755 309.467 200.11C311.37 180.588 313.264 161.063 315.158 141.539C306.655 140.108 298.662 136.508 290.167 135.112Z" fill="#6DAF8C"/>
<path fill-rule="evenodd" clip-rule="evenodd" d="M278.792 194.893C271.947 192.343 265.12 189.749 258.369 186.959C253.215 195.362 248.058 203.772 242.892 212.195C252.287 215.29 261.662 218.378 271.032 221.464C273.583 212.593 276.757 203.906 278.792 194.893Z" fill="#80AFCF"/>
<path fill-rule="evenodd" clip-rule="evenodd" d="M284.46 196.998C282.399 205.924 279.253 214.541 276.735 223.344C286.583 226.588 296.421 229.828 306.25 233.065C307.126 224.141 307.993 215.216 308.864 206.292C300.791 203.034 292.623 200.02 284.46 196.998Z" fill="#A9CBDF"/>
<path fill-rule="evenodd" clip-rule="evenodd" d="M357.665 161.666C358.696 153.991 360.599 146.226 360.893 138.448C349.476 134.405 338.062 130.363 326.637 126.318C325.823 134.725 325.006 143.132 324.192 151.539C334.926 156.003 346.217 159.187 357.663 161.72C357.665 161.701 357.661 161.685 357.665 161.666Z" fill="#96BFD8"/>
<path fill-rule="evenodd" clip-rule="evenodd" d="M366.634 140.48C366.128 147.546 364.622 154.534 363.665 161.666C363.6 162.138 363.452 162.552 363.239 162.908C369.307 164.141 375.403 165.22 381.464 166.234C381.55 159.438 381.636 152.642 381.72 145.823C376.687 144.041 371.661 142.261 366.634 140.48Z" fill="#80AFCF"/>
<path fill-rule="evenodd" clip-rule="evenodd" d="M317.425 220.99C316.927 226.078 316.437 231.168 315.937 236.256C335.933 242.841 355.903 249.418 375.868 255.991C377.155 256.414 378.468 256.76 379.77 257.135C379.834 257.153 379.922 257.11 379.993 257.081C380.065 257.052 380.128 257.005 380.329 256.888C380.386 252.39 380.442 247.889 380.499 243.388" fill="#6DAF8C"/>
<path fill-rule="evenodd" clip-rule="evenodd" d="M380.577 237.151C380.847 215.585 381.118 193.975 381.39 172.268C361.822 168.999 323.594 157.716 323.594 157.716C321.748 176.744 319.89 195.77 318.03 214.796" fill="#80AFCF"/>
<path fill-rule="evenodd" clip-rule="evenodd" d="M361.689 59.899C361.324 64.123 360.902 68.342 360.478 72.561C359.568 81.627 358.63 90.691 357.718 99.757C357.446 102.455 357.222 105.157 356.952 108.129C363.184 110.333 369.401 112.532 375.61 114.729C384.883 107.882 390.327 97.338 397.662 88.599C398.017 88.174 398.365 87.743 398.721 87.317C385.632 79.218 373.499 69.743 361.689 59.899Z" fill="#80AFCF"/>
<path fill-rule="evenodd" clip-rule="evenodd" d="M402.178 82.409C402.317 82.494 402.428 82.592 402.545 82.688C410.516 72.988 418.254 63.098 425.75 53.027C419.254 44.318 412.551 35.748 406.375 26.952C397.406 32.878 388.433 38.799 379.462 44.723C374.505 47.997 369.546 51.268 364.589 54.54C376.567 64.562 388.857 74.211 402.178 82.409Z" fill="#A9CBDF"/>
<path fill-rule="evenodd" clip-rule="evenodd" d="M452.811 98.73C447.268 83.967 438.719 70.774 429.434 58.022C420.522 69.846 411.211 81.319 401.905 92.84C395.336 100.97 389.976 110.144 382.209 117.06C398.212 122.721 414.169 128.365 430.159 134.02C430.815 133.045 431.356 132.265 431.874 131.471C438.913 120.679 445.952 109.887 452.991 99.094C452.93 98.972 452.859 98.863 452.811 98.73Z" fill="#96BFD8"/>
<path fill-rule="evenodd" clip-rule="evenodd" d="M414.439 99.018C404.187 95.313 400.82 104.448 400.322 107.59C399.515 112.695 402.371 116.094 406.81 118.145C409.74 119.498 412.822 120.42 415.787 121.673C419.076 123.061 425.058 127.566 428.334 123.693C431.287 120.199 434.248 109.994 426.166 110.033C423.258 110.047 421.121 110.167 419.178 107.8C417.004 105.149 418.053 100.824 414.439 99.018Z" fill="#6A97C9"/>
<path fill-rule="evenodd" clip-rule="evenodd" d="M442.777 63.446C448.679 72.209 454.05 81.279 458.261 91.01L468.991 74.558C468.968 65.754 468.852 56.945 468.556 48.145C459.715 52.863 451.012 57.745 442.777 63.446Z" fill="#6DAF8C"/>
<path fill-rule="evenodd" clip-rule="evenodd" d="M467.816 41.743C467.978 41.658 468.136 41.602 468.294 41.547C467.761 29.703 466.856 17.882 465.319 6.121C457.233 6.116 449.149 6.112 441.063 6.088C438.885 6.082 437.1 6.599 435.28 7.809C427.87 12.735 420.448 17.643 413.024 22.551C421.493 34.694 430.846 46.367 439.383 58.521C448.436 52.217 458.059 46.913 467.816 41.743Z" fill="#80AFCF"/>
<path fill-rule="evenodd" clip-rule="evenodd" d="M509.404 10.919C508.494 9.33401 507.633 7.72301 506.75 6.12601H503.695C492.902 6.12601 482.109 6.13101 471.316 6.12901C473.82 25.813 474.693 45.627 474.925 65.462L500.148 26.789C503.074 22.302 506.002 17.814 508.927 13.327C509.41 12.588 509.963 11.889 509.404 10.919Z" fill="#80AFCF"/>
<path fill-rule="evenodd" clip-rule="evenodd" d="M82.8459 258.409C83.0359 258.521 83.1999 258.647 83.3499 258.779C90.8069 247.829 98.4799 237.005 104.533 225.208C98.1909 217.903 91.6909 210.738 84.9749 203.772C78.9799 209.998 72.9799 216.22 66.9879 222.449C62.2579 227.366 57.5399 232.295 52.8149 237.217C63.0289 243.978 72.2749 252.151 82.8459 258.409Z" fill="#80AFCF"/>
<path fill-rule="evenodd" clip-rule="evenodd" d="M79.817 263.59C68.837 257.088 59.2839 248.522 48.5899 241.617C42.0429 248.441 35.491 255.262 28.945 262.087C28.305 262.754 27.722 263.475 26.924 264.386C40.7229 270.698 54.443 276.975 68.153 283.246C71.713 276.489 75.7939 270.043 80.0339 263.691C79.9629 263.656 79.89 263.633 79.817 263.59Z" fill="#BEAF8F"/>
<path fill-rule="evenodd" clip-rule="evenodd" d="M134.506 261.828C126.117 251.104 117.572 240.489 108.742 230.121C98.429 249.507 83.921 266.375 73.613 285.745C85.66 291.255 97.705 296.766 109.797 302.297C110.32 301.524 110.743 300.951 111.111 300.346C118.919 287.517 126.725 274.689 134.533 261.86C134.525 261.848 134.515 261.838 134.506 261.828Z" fill="#A9CBDF"/>
<path fill-rule="evenodd" clip-rule="evenodd" d="M120.439 166.947C110.467 177.3 100.499 187.654 90.527 198.007C107.777 215.887 123.614 235.077 138.94 254.619C146.499 242.199 154.064 229.783 161.629 217.367C149.724 199.167 135.207 182.889 120.439 166.947Z" fill="#96BFD8"/>
<path fill-rule="evenodd" clip-rule="evenodd" d="M129.356 190.484C129.213 190.582 129.356 190.484 128.833 190.667C122.673 192.82 117.365 183.446 110.758 187.691C105.343 191.17 103.529 199.479 110.005 203.303C112.124 204.555 114.34 205.462 116.09 207.233C117.558 208.718 117.809 211.15 117.859 213.117C117.967 217.457 121.088 221.372 125.668 220.833C128.691 220.478 131.739 218.626 132.37 215.4C133.13 211.51 131.559 207.544 132.704 203.734C134.201 198.744 135.667 189.334 129.356 190.484Z" fill="#6A97C9"/>
<path fill-rule="evenodd" clip-rule="evenodd" d="M161.081 165.691C157.87 156.423 154.663 147.154 151.451 137.887C151.226 137.237 150.913 136.618 150.568 135.817C149.947 136.403 149.473 136.814 149.04 137.263C140.892 145.713 132.747 154.168 124.604 162.623C131.633 170.215 138.6 177.889 145.273 185.796C150.597 179.136 155.907 172.466 161.081 165.691Z" fill="#80AFCF"/>
<path fill-rule="evenodd" clip-rule="evenodd" d="M163.414 172.412C158.722 178.484 153.949 184.494 149.156 190.488C154.758 197.34 160.123 204.377 165.067 211.723C167.247 208.146 169.424 204.567 171.604 200.99C172.38 199.717 172.534 198.651 172.034 197.216C169.15 188.952 166.282 180.682 163.414 172.412Z" fill="#6DAF8C"/>
<path fill-rule="evenodd" clip-rule="evenodd" d="M258.099 363.186C263.003 377.389 267.907 391.591 272.812 405.793C273.068 406.534 273.385 407.254 273.74 408.148C277.402 406.396 280.885 404.612 284.47 403.068C286.118 402.358 286.881 401.338 287.341 399.637C290.643 387.446 293.956 375.258 297.266 363.069C284.208 363.247 271.143 363.665 258.099 363.186Z" fill="#6A97C9"/>
<path fill-rule="evenodd" clip-rule="evenodd" d="M223.842 263.982C234.844 263.572 245.743 261.77 256.65 260.187C258.879 253.382 260.968 246.533 262.82 239.608C252.692 236.273 242.563 232.938 232.441 229.606C232.084 230.034 231.853 230.251 231.692 230.512C227.787 236.84 223.924 243.193 219.959 249.483C219.228 250.643 219.558 251.574 219.923 252.63C221.229 256.415 222.536 260.198 223.842 263.982Z" fill="#80AFCF"/>
<path fill-rule="evenodd" clip-rule="evenodd" d="M225.885 269.898C230.355 282.843 234.824 295.789 239.295 308.734C244.363 294.659 249.705 280.671 254.532 266.519C245.015 267.934 235.482 269.404 225.885 269.898Z" fill="#BEAF8F"/>
<path fill-rule="evenodd" clip-rule="evenodd" d="M257.001 289.346C252.793 300.852 248.494 312.329 244.537 323.915C248.124 334.3 251.71 344.686 255.296 355.07C269.996 355.762 284.725 355.208 299.444 355.043C303.658 339.53 307.879 324.019 312.097 308.507C293.128 304.036 274.711 297.464 257.001 289.346Z" fill="#80AFCF"/>
<path fill-rule="evenodd" clip-rule="evenodd" d="M272.333 242.74C268.6 256.619 263.938 270.203 259.051 283.716C276.593 291.808 294.865 298.286 313.673 302.719C315.686 295.32 317.696 287.919 319.709 280.52C321.531 273.819 323.359 267.119 325.254 260.163C307.585 254.346 289.953 248.541 272.333 242.74Z" fill="#96BFD8"/>
<path fill-rule="evenodd" clip-rule="evenodd" d="M449.307 239.466C433.856 240.418 418.405 241.37 402.971 242.321C402.838 242.767 402.719 242.987 402.715 243.209C402.486 259.832 402.262 276.454 402.037 293.077C417.961 292.162 433.771 289.773 449.672 288.63C449.754 272.239 450.752 255.816 449.307 239.466Z" fill="#BEAF8F"/>
<path fill-rule="evenodd" clip-rule="evenodd" d="M465.154 238.49C461.857 238.693 458.566 238.896 455.269 239.099C456.753 255.449 455.769 271.872 455.673 288.264C458.591 288.12 461.511 288.024 464.437 288.003C465.73 271.526 466.154 254.993 465.154 238.49Z" fill="#80AFCF"/>
<path fill-rule="evenodd" clip-rule="evenodd" d="M401.955 299.082C401.748 314.276 401.539 329.471 401.334 344.666C401.332 344.901 401.389 345.14 401.436 345.373C401.448 345.44 401.51 345.505 401.565 345.555C401.622 345.609 401.698 345.644 401.86 345.749C402.522 345.444 403.247 345.131 403.956 344.783C413.28 340.208 422.604 335.634 431.921 331.048C441.761 326.205 451.599 321.362 461.437 316.52C462.402 309.037 463.246 301.532 463.929 294.012C443.162 294.216 422.656 297.899 401.955 299.082Z" fill="#80AFCF"/>
<path fill-rule="evenodd" clip-rule="evenodd" d="M451.17 299.668C451.106 299.668 451.059 299.643 451.002 299.634C446.457 300.294 446.045 308.623 441.588 310.583C437.672 312.307 432.756 310.066 431.666 316.12C431.021 319.703 433.176 321.652 436.57 321.369C442.138 320.904 447.705 318.072 452.216 314.89C453.835 313.749 456.259 312.228 457.14 310.329C459.459 305.325 457.148 299.666 451.17 299.668Z" fill="#6A97C9"/>
<path fill-rule="evenodd" clip-rule="evenodd" d="M473.689 258.666C490.445 258.659 507.214 258.545 523.902 257.067C524.056 253.725 524.211 250.384 524.306 247.042C524.417 243.143 524.327 239.236 524.327 234.843C507.233 235.897 490.177 236.948 473.126 237.999C473.555 244.887 473.723 251.778 473.689 258.666Z" fill="#A9CBDF"/>
<path fill-rule="evenodd" clip-rule="evenodd" d="M510.295 263.989C510.137 273.695 509.367 283.379 509.094 293.081C513.119 291.103 517.141 289.121 521.166 287.145C522.506 286.488 522.957 285.658 522.986 284.196C523.119 277.561 523.347 270.929 523.591 264.297C523.605 263.895 523.624 263.493 523.64 263.092C519.197 263.48 514.748 263.768 510.295 263.989Z" fill="#80AFCF"/>
<path fill-rule="evenodd" clip-rule="evenodd" d="M504.291 264.247C494.074 264.615 483.84 264.662 473.611 264.666C473.261 280.592 471.869 296.497 469.947 312.33C480.972 306.903 492.004 301.482 503.035 296.06C503.207 285.446 504.107 274.86 504.291 264.247Z" fill="#96BFD8"/>
<path fill-rule="evenodd" clip-rule="evenodd" d="M89.287 327.414C89.498 324.112 89.579 320.803 89.467 317.483C79.578 312.96 69.68 308.431 59.759 303.893C58.25 310.05 56.747 316.186 55.243 322.326C66.623 323.784 77.931 325.764 89.287 327.414Z" fill="#A9CBDF"/>
<path fill-rule="evenodd" clip-rule="evenodd" d="M81.3639 381.332C81.9589 375.332 82.688 369.341 83.761 363.374C83.776 363.293 83.79 363.213 83.805 363.132C83.824 362.907 83.863 362.688 83.925 362.476C85.69 352.768 87.7219 343.026 88.7829 333.219C88.4929 333.258 88.1899 333.272 87.8659 333.225C76.5089 331.579 65.202 329.575 53.815 328.15C49.466 345.9 45.1289 363.603 40.7859 381.333H81.3639V381.332Z" fill="#6DAF8C"/>
<path fill-rule="evenodd" clip-rule="evenodd" d="M39.317 387.332C37.601 394.335 35.884 401.343 34.165 408.362C35.797 408.477 37.049 408.602 38.303 408.649C49.008 409.05 59.712 409.432 70.417 409.829C73.184 409.932 75.952 410.035 78.721 410.138C79.582 402.547 80.14 394.936 80.806 387.332H39.317Z" fill="#80AFCF"/>
<path fill-rule="evenodd" clip-rule="evenodd" d="M135.772 338.666C138.166 355.993 138.74 373.547 138.63 391.061C149.316 379.727 160.007 368.398 170.695 357.066C171.169 356.564 171.575 356 172.143 355.304C160.005 349.75 147.886 344.207 135.772 338.666Z" fill="#80AFCF"/>
<path fill-rule="evenodd" clip-rule="evenodd" d="M93.2269 367.143C90.7929 381.527 90.1629 396.047 88.6169 410.505C98.0479 410.856 107.477 411.213 116.907 411.597C118.574 411.664 119.704 411.156 120.844 409.943C123.391 407.233 125.945 404.53 128.494 401.821C128.704 391.408 128.769 380.946 128.419 370.51C116.84 368.28 104.995 367.9 93.2269 367.143Z" fill="#96BFD8"/>
<path fill-rule="evenodd" clip-rule="evenodd" d="M128.163 364.375C127.643 354.094 126.667 343.851 124.952 333.715C116.474 329.837 107.999 325.96 99.515 322.079C99.354 335.225 96.666 348.269 94.277 361.215C105.606 361.939 116.991 362.387 128.163 364.375Z" fill="#80AFCF"/>
<path fill-rule="evenodd" clip-rule="evenodd" d="M589.869 89.337C582.054 94.594 574.254 99.843 566.457 105.087C567.184 109.177 567.861 113.026 568.553 116.873C568.811 118.313 569.071 119.754 569.33 121.194C576.529 121.704 583.736 121.997 590.949 122.161C590.826 111.212 590.467 100.269 589.869 89.337Z" fill="#96BFD8"/>
<path fill-rule="evenodd" clip-rule="evenodd" d="M629.771 121.536C632.683 105.773 635.435 89.949 636.597 73.956C632.501 71.352 628.413 68.75 624.331 66.154C614.718 72.62 605.165 79.048 595.64 85.455C596.372 97.715 596.814 109.987 596.95 122.268C607.868 122.41 618.794 122.291 629.718 122.171C629.717 121.966 629.73 121.755 629.771 121.536Z" fill="#6DAF8C"/>
<path fill-rule="evenodd" clip-rule="evenodd" d="M642.313 77.592C641.024 92.537 638.463 107.357 635.747 122.105C639.624 122.065 643.501 122.03 647.376 122.013C651.913 111.173 656.45 100.331 660.995 89.476C654.729 85.49 648.508 81.533 642.313 77.592Z" fill="#80AFCF"/>
<path fill-rule="evenodd" clip-rule="evenodd" d="M616.904 132.295C616.904 132.295 625.59 153.307 629.847 163.887C634.292 153.265 638.736 142.651 643.179 132.037C634.424 132.102 625.664 132.231 616.904 132.295Z" fill="#A9CBDF"/>
<path fill-rule="evenodd" clip-rule="evenodd" d="M571.152 131.315C573.087 142.066 575.025 152.817 576.957 163.569C578.27 170.881 579.598 178.189 580.834 185.514C581.094 187.059 581.799 187.828 583.275 188.302C586.921 189.472 590.517 190.807 594.132 192.079C600.98 194.488 607.825 196.9 614.976 199.417C618.871 190.111 622.757 180.825 626.644 171.541C620.708 158.599 609.845 132.325 609.845 132.325" fill="#80AFCF"/>
<path fill-rule="evenodd" clip-rule="evenodd" d="M605.645 164.051C605.186 164.888 604.737 165.888 604.084 166.595C602.551 168.253 600.797 169.319 598.49 169.496C595.287 169.741 585.056 168.913 588.082 176.222C590.281 181.53 595.801 179.35 598.752 183.011C600.992 185.787 601.859 190.396 605.916 191.339C614.268 193.281 615.029 186.381 614.947 180.207C614.773 180.046 614.66 179.813 614.668 179.501C614.686 178.794 614.77 178.081 614.873 177.366C614.857 176.834 614.842 176.32 614.834 175.834C614.828 175.433 615.027 175.171 615.291 175.02C615.832 172.405 616.484 169.78 616.211 167.239C615.639 161.891 609.082 157.771 605.645 164.051Z" fill="#6A97C9"/>
<path fill-rule="evenodd" clip-rule="evenodd" d="M252.115 30.102C242.925 39.655 233.739 49.212 224.548 58.764C224.059 59.273 223.606 59.816 223.12 60.361C223.968 60.88 235.861 65.224 251.606 70.858C251.533 57.267 251.491 43.673 252.115 30.102Z" fill="#80AFCF"/>
<path fill-rule="evenodd" clip-rule="evenodd" d="M296.932 30.354C297.475 22.288 297.781 14.214 297.572 6.118C290.739 6.115 283.906 6.11301 277.073 6.10301C275.782 6.10101 274.854 6.457 273.944 7.406C270.231 11.275 266.508 15.135 262.792 19.001C261.381 37.445 261.525 55.943 261.626 74.432C271.657 78 282.517 81.836 292.741 85.424C293.204 68.005 295.437 50.666 296.722 33.292C296.338 32.298 296.406 31.162 296.932 30.354Z" fill="#A9CBDF"/>
<path fill-rule="evenodd" clip-rule="evenodd" d="M338.417 70.358C339.371 60.847 340.402 50.241 341.327 40.432C328.998 39.686 316.779 37.572 304.516 35.974C303.738 45.786 302.708 55.589 301.905 65.403C314.221 65.831 326.288 68.33 338.417 70.358Z" fill="#96BFD8"/>
<path fill-rule="evenodd" clip-rule="evenodd" d="M301.451 71.391C301.058 76.989 300.761 82.591 300.676 88.203C318.948 94.589 333.639 99.627 335.154 99.931C335.455 98.726 336.521 89.009 337.822 76.259C325.739 74.222 313.713 71.765 301.451 71.391Z" fill="#80AFCF"/>
<path fill-rule="evenodd" clip-rule="evenodd" d="M304.948 30.031C317.252 31.646 329.513 33.76 341.886 34.466C343.311 19.108 344.348 6.92799 344.193 6.20799C343.597 6.18199 342.969 6.12999 342.341 6.12999C330.085 6.12799 317.828 6.12799 305.572 6.12399C305.778 14.109 305.477 22.074 304.948 30.031Z" fill="#BEAF8F"/>
<path fill-rule="evenodd" clip-rule="evenodd" d="M703.926 132.053C703.93 127.661 703.93 123.27 703.934 118.879C703.936 117.339 703.5 116.421 702.172 115.59C693.496 110.167 684.877 104.655 676.237 99.178C675.794 98.897 675.319 98.669 674.682 98.321C671.606 105.669 668.537 113.002 665.467 120.336C677.693 125.914 691.129 128.057 703.926 132.053Z" fill="#80AFCF"/>
<path fill-rule="evenodd" clip-rule="evenodd" d="M663.162 125.839C659.039 135.692 654.918 145.537 650.797 155.382C668.279 161.331 686.162 165.979 703.903 171.101C703.905 160.181 703.915 149.26 703.922 138.339C690.4 133.899 676.19 131.665 663.162 125.839Z" fill="#96BFD8"/>
<path fill-rule="evenodd" clip-rule="evenodd" d="M637.152 187.979C634.818 193.554 632.488 199.119 630.15 204.703C645.748 210.35 661.267 215.869 676.834 221.313C677.524 213.881 678.828 206.516 680.063 199.146C665.82 194.993 650.732 193.966 637.152 187.979Z" fill="#80AFCF"/>
<path fill-rule="evenodd" clip-rule="evenodd" d="M681.029 193.173C682.041 186.652 682.857 180.112 682.998 173.501C671.158 170.166 659.338 166.766 647.703 162.771C644.961 169.323 642.213 175.889 639.467 182.446C652.555 188.326 667.244 189.279 681.029 193.173Z" fill="#BEAF8F"/>
<path fill-rule="evenodd" clip-rule="evenodd" d="M688.932 175.169C688.317 191.387 683.899 207.195 682.659 223.351C689.673 225.792 696.698 228.222 703.751 230.634C703.814 229.651 703.896 228.961 703.897 228.272C703.899 211.992 703.899 195.711 703.901 179.431C698.92 177.98 693.926 176.572 688.932 175.169Z" fill="#A9CBDF"/>
<path fill-rule="evenodd" clip-rule="evenodd" d="M570.621 315.213C571.217 304.533 571.543 293.836 571.637 283.146C564.686 281.316 557.737 279.497 550.783 277.69C550.482 278.631 549.709 295.437 549.035 312.915C556.215 313.827 563.406 314.639 570.621 315.213Z" fill="#BEAF8F"/>
<path fill-rule="evenodd" clip-rule="evenodd" d="M548.809 318.885C548.194 335.548 547.731 351.247 547.916 352.717C554.033 355.004 560.176 357.3 566.311 359.594C568.145 346.851 569.424 334.032 570.272 321.183C563.098 320.605 555.947 319.794 548.809 318.885Z" fill="#80AFCF"/>
<path fill-rule="evenodd" clip-rule="evenodd" d="M632.779 319.612C635.398 313.678 638.021 307.737 640.652 301.779C620.921 296.307 601.257 290.998 581.601 285.788C581.517 292.449 581.341 299.109 581.066 305.766C581.066 305.766 615.605 314.989 632.779 319.612Z" fill="#6A97C9"/>
<path fill-rule="evenodd" clip-rule="evenodd" d="M577.783 348.205C577.205 353.196 576.56 358.18 575.826 363.152C586.586 367.175 597.375 371.21 608.209 375.259C610.242 370.656 612.264 366.076 614.289 361.488C601.965 357.503 589.955 352.629 577.783 348.205Z" fill="#A9CBDF"/>
<path fill-rule="evenodd" clip-rule="evenodd" d="M616.727 355.966C621.262 345.694 625.793 335.434 630.327 325.164C613.847 320.815 580.753 312.306 580.753 312.306C580.239 322.252 579.485 332.184 578.456 342.088C591.221 346.7 603.797 351.832 616.727 355.966Z" fill="#96BFD8"/>
<path fill-rule="evenodd" clip-rule="evenodd" d="M431.654 195.071C431.785 184.596 431.916 174.121 431.97 163.646C422.609 160.34 413.232 157.029 403.818 153.706C403.726 167.243 403.498 180.619 403.316 193.965C412.793 193.883 422.248 193.785 431.654 195.071Z" fill="#80AFCF"/>
<path fill-rule="evenodd" clip-rule="evenodd" d="M403.238 199.956C403.131 208.722 403.058 217.482 403.074 226.276C412.517 225.694 421.943 225.112 431.363 224.531C431.404 216.715 431.49 208.899 431.584 201.083C422.207 199.659 412.707 199.843 403.238 199.956Z" fill="#A9CBDF"/>
<path fill-rule="evenodd" clip-rule="evenodd" d="M480.947 180.938C467.3 176.12 453.648 171.299 439.955 166.464C439.828 185.655 439.469 204.845 439.365 224.037C452.826 223.207 466.273 222.377 479.724 221.547C479.945 208.006 480.752 194.48 480.947 180.938Z" fill="#6A97C9"/>
<path fill-rule="evenodd" clip-rule="evenodd" d="M486.92 183.046C486.678 195.76 485.947 208.462 485.729 221.177C489.93 220.918 494.131 220.659 498.333 220.4V187.076C494.529 185.733 490.723 184.39 486.92 183.046Z" fill="#6DAF8C"/>
<path fill-rule="evenodd" clip-rule="evenodd" d="M508.332 190.607V219.783C513.969 219.435 519.6 219.088 525.242 218.74C525.508 211.306 525.763 204.145 526.025 196.854C520.125 194.77 514.229 192.689 508.332 190.607Z" fill="#80AFCF"/>
<path fill-rule="evenodd" clip-rule="evenodd" d="M379.866 286.764C379.915 283.938 379.964 281.092 380.011 278.193C366.8 273.84 353.79 269.554 340.803 265.275C340.546 265.833 339.075 270.944 336.878 278.811C336.878 278.811 365.397 284.917 379.866 286.764Z" fill="#80AFCF"/>
<path fill-rule="evenodd" clip-rule="evenodd" d="M335.234 284.716C332.753 293.67 329.669 304.916 326.447 316.747C344.018 318.744 361.821 317.188 379.462 318.471C379.521 312.582 379.573 306.694 379.65 300.805C379.683 298.127 379.724 295.445 379.769 292.752C364.786 290.825 335.234 284.716 335.234 284.716Z" fill="#80AFCF"/>
<path fill-rule="evenodd" clip-rule="evenodd" d="M353.785 325.764C343.951 325.711 334.122 325.618 324.346 324.476C315.471 357.156 306.33 391.367 306.346 392.363C307.107 392.023 307.832 391.725 308.536 391.383C315.071 388.204 321.601 385.018 328.134 381.833C335.967 378.015 343.798 374.191 351.632 370.374C355.042 355.953 354.426 340.495 353.785 325.764Z" fill="#A9CBDF"/>
<path fill-rule="evenodd" clip-rule="evenodd" d="M359.784 325.8C360.368 339.388 360.882 353.566 358.46 367.055C364.648 364.043 370.835 361.032 377.028 358.035C378.434 357.355 379.018 356.63 379.026 354.992C379.067 345.479 379.26 335.969 379.378 326.456C372.858 325.97 366.323 325.85 359.784 325.8Z" fill="#6DAF8C"/>
<path fill-rule="evenodd" clip-rule="evenodd" d="M211.189 398.137C219.976 394.506 228.827 391.024 237.509 387.155C232.37 372.268 227.228 357.373 222.065 342.418C214.325 350.62 206.651 358.753 198.998 366.862C203.302 377.19 207.224 387.672 211.189 398.137Z" fill="#96BFD8"/>
<path fill-rule="evenodd" clip-rule="evenodd" d="M194.523 371.604C187.239 379.323 179.969 387.026 172.684 394.746C173.277 395.778 173.707 396.542 174.149 397.299C177.07 402.299 179.992 407.299 182.915 412.298C190.628 408.665 197.954 404.094 205.694 400.499C202.036 390.842 198.441 381.157 194.523 371.604Z" fill="#A9CBDF"/>
<path fill-rule="evenodd" clip-rule="evenodd" d="M250.009 423.362C246.709 413.803 243.41 404.25 240.112 394.695C231.089 398.669 221.899 402.259 212.797 406.055C203.873 409.778 195.613 414.955 186.924 419.159C193.268 430.015 199.605 440.877 205.908 451.757C206.839 453.362 207.833 453.922 209.663 453.913C217.004 453.881 224.346 453.873 231.687 453.87C237.09 443.309 243.711 433.428 250.009 423.362Z" fill="#80AFCF"/>
<path fill-rule="evenodd" clip-rule="evenodd" d="M237.138 408.137C232.182 404.085 221.494 406.38 224.466 414.402C226.328 419.426 225.811 420.911 223.115 425.165C217.985 433.264 234.484 436.398 237.871 427.902C237.932 427.75 238.018 427.628 238.118 427.53C240.122 421.657 242.067 412.167 237.138 408.137Z" fill="#6A97C9"/>
<path fill-rule="evenodd" clip-rule="evenodd" d="M238.461 453.868C244.931 453.869 251.4 453.873 257.87 453.873H260.543C257.864 446.113 255.192 438.372 252.52 430.632C247.665 438.285 242.751 445.903 238.461 453.868Z" fill="#6DAF8C"/>
<path fill-rule="evenodd" clip-rule="evenodd" d="M195.583 265.712C190.221 250.184 184.845 234.615 179.424 218.919C169.847 234.672 160.355 250.286 150.884 265.864C165.788 265.545 180.71 264.85 195.583 265.712Z" fill="#80AFCF"/>
<path fill-rule="evenodd" clip-rule="evenodd" d="M171.694 271.372C163.528 271.51 155.357 271.801 147.194 271.933C139.671 284.308 132.153 296.672 124.616 309.071C139.516 315.888 154.316 322.661 169.173 329.459C171.199 310.166 172.149 290.77 171.694 271.372Z" fill="#96BFD8"/>
<path fill-rule="evenodd" clip-rule="evenodd" d="M197.7 271.843C191.04 271.389 184.369 271.272 177.693 271.306C178.172 291.603 177.101 311.895 174.881 332.069C179.382 334.129 183.887 336.19 188.407 338.258C196.351 329.837 204.178 321.54 211.999 313.249C207.228 299.431 202.467 285.647 197.7 271.843Z" fill="#A9CBDF"/>
<path fill-rule="evenodd" clip-rule="evenodd" d="M659.104 260.004C661.108 255.467 663.108 250.937 665.106 246.412C664.776 246.158 664.612 245.954 664.399 245.879C649.815 240.71 635.227 235.549 620.641 230.383C620.157 236.252 619.016 242.051 617.635 247.823C631.426 251.987 645.297 255.886 659.104 260.004Z" fill="#96BFD8"/>
<path fill-rule="evenodd" clip-rule="evenodd" d="M616.172 253.647C614.467 260.183 612.619 266.702 611.221 273.262C623.733 276.635 636.241 280.007 648.776 283.386C651.422 277.393 654.047 271.452 656.661 265.536C643.178 261.526 629.639 257.712 616.172 253.647Z" fill="#80AFCF"/>
<path fill-rule="evenodd" clip-rule="evenodd" d="M579.74 215.899C578.019 231.577 573.402 246.734 569.384 261.983C580.759 265.049 592.134 268.116 603.505 271.181C606.634 256.677 612.036 242.377 612.792 227.603C601.775 223.702 590.758 219.801 579.74 215.899Z" fill="#A9CBDF"/>
<path fill-rule="evenodd" clip-rule="evenodd" d="M573.93 213.842C567.43 211.54 560.932 209.237 554.432 206.937C554.137 206.833 553.811 206.819 553.496 206.779C553.428 206.771 553.344 206.826 553.275 206.866C553.212 206.903 553.16 206.959 552.959 207.129C552.352 223.601 551.742 240.2 551.121 257.062C555.281 258.183 559.436 259.303 563.594 260.424C567.664 245.032 572.416 229.711 573.93 213.842Z" fill="#6DAF8C"/>
<path fill-rule="evenodd" clip-rule="evenodd" d="M71.702 76.083C62.378 73.336 53.044 70.586 43.673 67.825C38.156 84.757 32.743 101.37 27.277 118.151C35.786 123.368 44.275 128.572 52.767 133.779C58.044 114.236 68.56 96.163 71.702 76.083Z" fill="#80AFCF"/>
<path fill-rule="evenodd" clip-rule="evenodd" d="M107.736 113.017C107.722 105.945 107.71 98.873 107.69 91.802C107.686 90.135 107.544 88.469 107.457 86.617C97.438 83.665 87.438 80.719 77.43 77.771C75.746 87.445 72.478 96.666 68.967 105.819C82.013 107.582 94.943 109.909 107.736 113.017Z" fill="#A9CBDF"/>
<path fill-rule="evenodd" clip-rule="evenodd" d="M66.76 111.525C63.496 119.92 60.261 128.327 58.09 137.043C69.192 143.849 80.296 150.657 91.433 157.485C91.914 157.08 92.176 156.898 92.393 156.672C97.176 151.729 101.94 146.767 106.746 141.846C107.536 141.036 107.804 140.185 107.8 139.075C107.777 132.45 107.764 125.825 107.75 119.2C94.241 115.84 80.567 113.329 66.76 111.525Z" fill="#80AFCF"/>
<path fill-rule="evenodd" clip-rule="evenodd" d="M495.992 374.348C482.289 372.875 468.621 370.99 454.928 369.428C453.053 374.744 451.164 380.1 449.235 385.572C464.348 393.046 479.383 400.481 494.499 407.957C495.082 396.745 496.65 385.571 495.992 374.348Z" fill="#80AFCF"/>
<path fill-rule="evenodd" clip-rule="evenodd" d="M502.023 374.963C502.64 386.947 500.787 398.879 500.373 410.861C506.191 413.738 512.027 416.624 517.889 419.523C518.539 404.925 518.995 390.604 519.559 376.329C513.701 376.01 507.859 375.531 502.023 374.963Z" fill="#A9CBDF"/>
<path fill-rule="evenodd" clip-rule="evenodd" d="M519.965 366.351C520.68 349.065 521.522 319.114 521.018 317.685C520.651 317.83 520.276 317.949 519.926 318.121C501.43 327.231 482.94 336.353 464.434 345.442C463.399 345.95 462.901 346.694 462.547 347.739C461.268 351.525 459.914 355.285 458.586 359.053C458.496 359.308 458.406 359.564 458.314 359.819C478.844 362.235 499.32 365.251 519.965 366.351Z" fill="#80AFCF"/>
<path fill-rule="evenodd" clip-rule="evenodd" d="M488.607 124.55C498.115 118.144 507.627 111.746 517.142 105.352C508.337 93.248 501.117 80.075 492.609 67.77C484.914 79.569 477.23 91.353 469.543 103.139C476.154 110.012 482.984 116.855 488.607 124.55Z" fill="#80AFCF"/>
<path fill-rule="evenodd" clip-rule="evenodd" d="M466.184 108.292C459.391 118.71 452.596 129.128 445.791 139.561C449.316 140.815 452.559 141.737 455.592 143.117C458.141 144.276 459.961 143.902 462.285 142.327C469.394 137.511 476.514 132.71 483.633 127.91C478.479 120.87 472.264 114.579 466.184 108.292Z" fill="#BEAF8F"/>
<path fill-rule="evenodd" clip-rule="evenodd" d="M518.625 27.878C511.498 38.807 504.393 49.702 497.295 60.586C506.701 73.631 514.332 87.874 523.758 100.907C531.25 95.873 538.742 90.839 546.233 85.803C547.149 85.187 548.049 84.548 549.106 83.816C538.951 65.18 528.875 46.688 518.625 27.878Z" fill="#96BFD8"/>
<path fill-rule="evenodd" clip-rule="evenodd" d="M216.573 87.32C212.505 85.871 208.433 84.429 204.366 82.976C202.611 82.349 201.55 82.565 200.233 83.954C191.32 93.347 182.298 102.637 173.318 111.966C172.831 112.472 172.402 113.035 171.931 113.59C174.209 120.159 176.45 126.62 178.669 133.018H213.674C215.533 117.839 216.987 102.596 216.573 87.32Z" fill="#80AFCF"/>
<path fill-rule="evenodd" clip-rule="evenodd" d="M277.024 108.789C259.558 102.592 242.092 96.397 224.631 90.188C224.804 104.504 223.416 118.789 221.674 133.019H265.276C269.974 125.34 274.639 117.715 279.502 109.77C278.474 109.361 277.758 109.049 277.024 108.789Z" fill="#80AFCF"/>
<path fill-rule="evenodd" clip-rule="evenodd" d="M703.469 365.086V340.326C703.057 340.345 702.813 340.321 702.586 340.371C695.367 341.953 688.146 343.531 680.928 345.114C681.25 351.525 681.444 357.95 681.498 364.376C688.785 365.12 696.16 365.556 703.469 365.086Z" fill="#A9CBDF"/>
<path fill-rule="evenodd" clip-rule="evenodd" d="M681.498 370.372C681.426 380.966 680.922 391.553 679.787 402.078C692.35 406.643 702.527 410.22 703.469 410.283V371.029C696.154 371.465 688.815 371.1 681.498 370.372Z" fill="#96BFD8"/>
<path fill-rule="evenodd" clip-rule="evenodd" d="M673.012 346.848C663.295 348.979 653.578 351.114 643.858 353.234C642.469 353.537 641.737 354.269 641.176 355.57C637.727 363.568 634.184 371.525 630.674 379.497C630.197 380.584 629.738 381.679 629.217 382.895C633.074 384.728 653.61 392.485 672.119 399.277C673.881 381.896 673.852 364.286 673.012 346.848Z" fill="#80AFCF"/>
<path fill-rule="evenodd" clip-rule="evenodd" d="M182.019 63.601C195.744 49.218 206.874 37.423 207.169 36.814C181.363 35.292 155.598 34 129.567 32.947C129.556 39.683 129.566 46.4 129.588 53.109C147.247 55.622 164.565 59.959 182.019 63.601Z" fill="#80AFCF"/>
<path fill-rule="evenodd" clip-rule="evenodd" d="M129.817 90.096C129.886 99.133 129.962 108.181 130.031 117.258C131.177 116.314 139.248 108.069 149.764 97.192C143.069 94.949 136.397 92.649 129.817 90.096Z" fill="#80AFCF"/>
<path fill-rule="evenodd" clip-rule="evenodd" d="M154.374 92.419C160.596 85.969 167.382 78.905 173.958 72.036C159.227 68.809 144.552 65.284 129.639 63.125C129.674 69.979 129.725 76.828 129.776 83.68C137.857 86.906 146.11 89.68 154.374 92.419Z" fill="#BEAF8F"/>
<path fill-rule="evenodd" clip-rule="evenodd" d="M332.644 453.781H375.106C366.715 436.308 358.438 419.069 350.057 401.617C344.06 404.514 338.089 407.399 332.131 410.277C333.417 424.753 333.01 439.265 332.644 453.781Z" fill="#A9CBDF"/>
<path fill-rule="evenodd" clip-rule="evenodd" d="M322.486 414.936C309.176 421.366 295.914 427.773 282.619 434.195C284.939 440.903 287.174 447.359 289.395 453.781H322.644C322.971 440.822 323.327 427.866 322.486 414.936Z" fill="#80AFCF"/>
<path fill-rule="evenodd" clip-rule="evenodd" d="M401.457 376.448C407.039 386.41 411.98 396.873 418.392 406.294C426.292 383.722 433.929 361.464 433.949 360.509C423.109 365.826 412.285 371.135 401.457 376.448Z" fill="#96BFD8"/>
<path fill-rule="evenodd" clip-rule="evenodd" d="M412.635 422.667C413.723 419.588 414.844 416.411 415.973 413.194C408.17 402.626 402.547 390.554 396.067 379.092C385.572 384.24 375.074 389.391 364.546 394.555C364.976 395.506 365.284 396.232 365.626 396.942C369.743 405.517 373.862 414.092 377.981 422.667H412.635Z" fill="#BEAF8F"/>
<path fill-rule="evenodd" clip-rule="evenodd" d="M380.862 428.667C383.29 433.722 385.717 438.776 388.145 443.831C389.528 446.713 390.903 449.598 392.284 452.48C392.634 453.207 392.954 453.898 393.987 453.878C396.457 453.831 398.927 453.862 401.302 453.862C402.122 452.063 405.849 441.786 410.509 428.666H380.862V428.667Z" fill="#80AFCF"/>
<path fill-rule="evenodd" clip-rule="evenodd" d="M107.306 28.077C107.182 16.554 106.983 6.99 106.756 6.306H63.705C61.818 12.1 59.932 17.892 58.042 23.693" fill="#6DAF8C"/>
<path fill-rule="evenodd" clip-rule="evenodd" d="M107.362 34.076L82.888 32.819C82.48 42.483 80.947 52.031 79.282 61.557C88.597 64.303 97.889 67.042 107.189 69.784C107.469 67.229 107.49 49.962 107.362 34.076Z" fill="#80AFCF"/>
<path fill-rule="evenodd" clip-rule="evenodd" d="M76.907 32.207C69.975 31.44 63.06 30.494 56.17 29.44C53.678 37.094 51.175 44.777 48.65 52.527C56.981 54.983 65.257 57.423 73.514 59.857C75.112 50.686 76.553 41.511 76.907 32.207Z" fill="#96BFD8"/>
<path fill-rule="evenodd" clip-rule="evenodd" d="M30.031 342.047C33.824 326.561 37.617 311.08 41.415 295.575C40.512 295.139 39.81 294.786 39.095 294.459C32.485 291.431 25.873 288.405 19.261 285.381C16.79 284.251 14.331 283.095 11.837 282.018C11.306 281.789 10.347 281.564 10.095 281.828C8.23697 283.764 6.02797 285.219 6.03597 288.641C6.08297 306.424 6.10197 324.207 6.11397 341.991C14.082 342.222 22.055 342.121 30.031 342.047Z" fill="#80AFCF"/>
<path fill-rule="evenodd" clip-rule="evenodd" d="M20.803 379.713C23.061 370.497 25.317 361.288 27.574 352.069C20.42 352.138 13.267 352.198 6.12 351.99C6.124 360.978 6.11999 369.966 6.12099 378.954C11.018 379.143 15.911 379.406 20.803 379.713Z" fill="#96BFD8"/>
<path fill-rule="evenodd" clip-rule="evenodd" d="M6.12195 384.955C6.12195 401.805 6.12295 418.655 6.12295 435.506V437.898C6.25395 437.946 6.38395 437.995 6.51495 438.044C10.7939 420.577 15.0759 403.098 19.3569 385.623C14.9459 385.351 10.5349 385.125 6.12195 384.955Z" fill="#80AFCF"/>
<path fill-rule="evenodd" clip-rule="evenodd" d="M597.941 51.283C598.752 50.74 599.57 50.191 600.398 49.635C600.593 35.186 601.095 20.723 600.406 6.29501H586.652C586.273 7.04501 585.898 7.74601 585.562 8.46301C583.224 13.457 580.896 18.454 578.564 23.449C577.759 25.173 576.955 26.895 576.15 28.619C583.789 35.801 590.682 43.721 597.941 51.283Z" fill="#96BFD8"/>
<path fill-rule="evenodd" clip-rule="evenodd" d="M573.469 34.361C570.67 40.353 567.873 46.345 565.072 52.335C564.56 53.43 564.105 54.394 564.853 55.689C567.134 59.631 569.255 63.665 571.449 67.658C571.586 67.907 571.812 68.106 571.976 68.304C574.367 66.93 582.443 61.634 592.874 54.671C586.412 47.892 580.205 40.865 573.469 34.361Z" fill="#BEAF8F"/>
<path fill-rule="evenodd" clip-rule="evenodd" d="M663.457 6.29501H638.994C639.433 11.865 639.588 17.448 639.638 23.038C652.924 13.938 662.965 6.93201 663.457 6.29501Z" fill="#6DAF8C"/>
<path fill-rule="evenodd" clip-rule="evenodd" d="M633.662 27.124C633.646 20.167 633.539 13.222 632.994 6.29501H610.406C610.986 18.46 610.724 30.648 610.508 42.833C618.264 37.6 626.281 32.16 633.662 27.124Z" fill="#80AFCF"/>
<path fill-rule="evenodd" clip-rule="evenodd" d="M475.768 420.774C469.811 417.827 463.856 414.878 457.899 411.932C452.895 409.457 447.883 407.001 442.581 404.392C436.714 421.009 430.956 437.314 425.161 453.724H469.942C472.512 442.866 474.309 431.841 475.768 420.774Z" fill="#80AFCF"/>
<path fill-rule="evenodd" clip-rule="evenodd" d="M514.787 440.082C504.285 434.884 493.779 429.687 483.275 424.49C481.941 434.3 480.343 444.075 478.156 453.724H516.611C516.674 452.808 516.748 452.029 516.777 451.247C516.873 448.852 516.92 446.454 517.046 444.061C517.193 441.294 517.227 441.288 514.787 440.082Z" fill="#6DAF8C"/>
<path fill-rule="evenodd" clip-rule="evenodd" d="M35.581 215.866C52.774 197.951 71.295 178.431 71.754 177.54C71.092 177.115 70.43 176.674 69.753 176.257C64.988 173.322 60.19 170.44 55.473 167.431C54.008 166.496 52.657 166.302 50.968 166.674C44.97 167.997 38.959 169.265 32.948 170.531C34.708 185.587 35.078 200.726 35.581 215.866Z" fill="#6DAF8C"/>
<path fill-rule="evenodd" clip-rule="evenodd" d="M28.5329 198.107C28.6989 198.056 28.8559 198.034 29.0129 198.01C28.6589 189.24 28.1369 180.483 27.1169 171.763C26.3979 171.915 25.6789 172.066 24.9599 172.219C18.7969 173.529 12.6379 174.856 6.20294 176.233C6.20294 185.336 6.20294 194.392 6.20294 203.431C13.7199 201.975 21.2009 200.36 28.5329 198.107Z" fill="#BEAF8F"/>
<path fill-rule="evenodd" clip-rule="evenodd" d="M6.20294 209.524C6.20394 220.999 6.20394 232.441 6.20594 243.884C6.20594 244.361 6.24494 244.84 6.27894 245.317C6.28294 245.376 6.35494 245.443 6.41294 245.481C6.47494 245.522 6.55694 245.535 6.62994 245.559C7.93594 244.476 17.9799 234.161 29.8059 221.875C29.5949 215.968 29.4389 210.056 29.2419 204.148C21.6709 206.419 13.9549 208.046 6.20294 209.524Z" fill="#80AFCF"/>
<path fill-rule="evenodd" clip-rule="evenodd" d="M194.083 177.513C199.279 192.638 204.548 207.747 209.904 222.996C210.404 222.369 210.678 222.091 210.877 221.766C219.52 207.591 228.156 193.412 236.796 179.236C222.55 178.919 208.327 177.919 194.083 177.513Z" fill="#80AFCF"/>
<path fill-rule="evenodd" clip-rule="evenodd" d="M254.766 149.467C254.741 149.4 254.691 149.341 254.659 149.292H184.495C186.974 156.7 189.481 164.079 192.001 171.449C208.149 171.838 224.27 173.069 240.422 173.284C245.215 165.419 250.01 157.556 254.801 149.69C254.832 149.641 254.792 149.539 254.766 149.467Z" fill="#6A97C9"/>
<path fill-rule="evenodd" clip-rule="evenodd" d="M703.516 289.5V259.69C697.807 257.674 692.186 255.69 686.616 253.724C685.622 255.204 678.885 270.124 671.522 286.815C682.166 287.948 692.83 288.936 703.516 289.5Z" fill="#80AFCF"/>
<path fill-rule="evenodd" clip-rule="evenodd" d="M669 292.544C660.055 312.916 651.043 333.937 650.857 335.325C668.433 331.45 685.943 327.591 703.515 323.717V295.5C691.986 294.891 680.48 293.787 669 292.544Z" fill="#6DAF8C"/>
<path fill-rule="evenodd" clip-rule="evenodd" d="M677.691 30.387C666.877 37.725 656.06 45.062 645.246 52.403C645.199 52.435 645.191 52.544 645.187 52.619C645.181 52.693 645.201 52.768 645.228 52.986C655.828 59.726 666.451 66.496 677.154 73.306C677.475 58.996 678.154 44.686 677.691 30.387Z" fill="#A9CBDF"/>
<path fill-rule="evenodd" clip-rule="evenodd" d="M687.631 55.212C687.43 63.338 687.145 71.465 687.039 79.593C692.629 83.146 698.242 86.709 703.9 90.292C703.931 78.792 703.959 67.408 703.961 56.034C698.51 55.947 693.065 55.722 687.631 55.212Z" fill="#96BFD8"/>
<path fill-rule="evenodd" clip-rule="evenodd" d="M687.754 49.269C693.139 49.809 698.545 50.032 703.959 50.103C703.947 37.711 703.893 25.316 703.752 12.786C702.363 13.688 701.561 14.19 700.779 14.721C696.314 17.749 691.851 20.78 687.386 23.808C687.891 32.292 687.902 40.78 687.754 49.269Z" fill="#6A97C9"/>
<path fill-rule="evenodd" clip-rule="evenodd" d="M642.381 426.073C641.955 422.923 641.528 419.773 641.102 416.619C627.84 411.677 614.708 406.781 601.256 401.767C599.203 409.282 597.174 416.703 595.153 424.097C610.906 424.513 626.617 426.139 642.381 426.073Z" fill="#6DAF8C"/>
<path fill-rule="evenodd" clip-rule="evenodd" d="M615.914 431.1C608.453 430.664 600.994 430.211 593.523 430.056C591.377 437.913 589.234 445.747 587.085 453.614H616.407C616.498 446.101 616.543 438.595 615.914 431.1Z" fill="#80AFCF"/>
<path fill-rule="evenodd" clip-rule="evenodd" d="M622.408 453.614H646.107C645.128 446.384 644.16 439.221 643.193 432.071C636.101 432.128 629.021 431.825 621.943 431.44C622.543 438.822 622.496 446.214 622.408 453.614Z" fill="#BEAF8F"/>
<path fill-rule="evenodd" clip-rule="evenodd" d="M581.324 413.825C582.89 407.906 584.441 401.979 585.963 396.029C572.785 391.105 559.867 386.279 546.639 381.337C546.336 389.175 546.041 396.974 545.75 404.76C557.734 407.217 569.357 411.253 581.324 413.825Z" fill="#80AFCF"/>
<path fill-rule="evenodd" clip-rule="evenodd" d="M545.525 410.825C545 425.13 544.494 439.387 544.025 453.663H570.396C573.617 442.335 576.736 430.996 579.779 419.62C568.252 417.147 557.045 413.305 545.525 410.825Z" fill="#96BFD8"/>
<path fill-rule="evenodd" clip-rule="evenodd" d="M6.20795 72.197V105.241C7.35895 105.933 8.50395 106.622 9.65795 107.315C9.90995 106.985 10.1169 106.819 10.1849 106.608C13.7389 95.716 17.2869 84.823 20.8369 73.93C15.9339 73.651 11.0709 72.953 6.20795 72.197Z" fill="#A9CBDF"/>
<path fill-rule="evenodd" clip-rule="evenodd" d="M22.766 68.016C26.51 56.53 30.256 45.044 34 33.557C24.733 33.357 15.473 32.923 6.20898 32.627V66.196C11.708 67.05 17.211 67.834 22.766 68.016Z" fill="#BEAF8F"/>
<path fill-rule="evenodd" clip-rule="evenodd" d="M36.5909 25.607C38.5049 19.732 40.4219 13.858 42.3359 7.98301C42.4579 7.60901 42.4909 7.20501 42.5519 6.81201C42.5619 6.74501 42.5029 6.66501 42.4679 6.59501C42.4339 6.52501 42.3889 6.46101 42.3049 6.32001H6.20795V24.627C16.3359 24.951 26.4589 25.442 36.5909 25.607Z" fill="#80AFCF"/>
<path fill-rule="evenodd" clip-rule="evenodd" d="M520.145 165.869C533.313 170.53 546.475 175.188 559.807 179.907C558.504 172.561 557.291 165.659 556.053 158.761C554.815 151.846 553.58 144.931 552.293 138.025C551.02 131.187 549.975 124.302 548.438 117.203C538.34 123.994 528.342 130.718 518.338 137.446C519.342 146.891 519.889 156.374 520.145 165.869Z" fill="#80AFCF"/>
<path fill-rule="evenodd" clip-rule="evenodd" d="M512.705 141.233C505.586 146.021 498.459 150.815 491.271 155.649C498.91 158.353 506.498 161.039 514.08 163.722C513.84 156.213 513.406 148.713 512.705 141.233Z" fill="#96BFD8"/>
<path fill-rule="evenodd" clip-rule="evenodd" d="M54.866 425.247C46.686 424.94 38.494 424.633 30.267 424.324C27.866 434.129 25.483 443.854 23.064 453.73C23.959 453.789 24.586 453.867 25.213 453.868C35.663 453.872 46.113 453.872 56.564 453.877C56.219 444.328 55.28 434.739 54.866 425.247Z" fill="#BEAF8F"/>
<path fill-rule="evenodd" clip-rule="evenodd" d="M103.941 427.089C90.265 426.576 76.585 426.063 62.865 425.547C63.257 434.968 64.115 444.442 64.448 453.886C68.795 453.89 73.142 453.89 77.489 453.901C78.91 453.905 79.833 453.388 80.768 452.382C86.922 445.773 93.135 439.216 99.329 432.643C100.913 430.961 102.497 429.281 104.081 427.599C104.034 427.429 103.988 427.259 103.941 427.089Z" fill="#6A97C9"/>
<path fill-rule="evenodd" clip-rule="evenodd" d="M138.68 430.782C131.51 438.382 124.332 445.991 117.076 453.682H150.443C146.521 446.049 142.619 438.407 138.68 430.782Z" fill="#80AFCF"/>
<path fill-rule="evenodd" clip-rule="evenodd" d="M157.186 453.682H181.262C172.997 439.556 164.908 425.732 156.692 411.689C152.125 416.531 147.58 421.348 143.038 426.163C147.779 435.323 152.46 444.514 157.186 453.682Z" fill="#BEAF8F"/>
<path fill-rule="evenodd" clip-rule="evenodd" d="M156.333 6.29102V18.042C158.871 18.18 161.408 18.323 163.946 18.458C171.372 18.853 178.8 19.191 186.225 19.587C190.483 19.814 194.742 20.045 199 20.277V6.30802C184.777 6.30102 170.555 6.29602 156.333 6.29102Z" fill="#6A97C9"/>
<path fill-rule="evenodd" clip-rule="evenodd" d="M150.333 6.28901C144.038 6.28701 137.742 6.28201 131.447 6.28101C130.975 6.28101 130.504 6.39 130.034 6.46C129.962 6.47 129.892 6.53501 129.834 6.58901C129.78 6.63901 129.742 6.70701 129.681 6.78801V16.482C130.507 16.573 131.06 16.66 131.615 16.691C137.854 17.035 144.095 17.373 150.334 17.714V6.28901H150.333Z" fill="#A9CBDF"/>
<path fill-rule="evenodd" clip-rule="evenodd" d="M236.054 6.323C225.702 6.316 215.351 6.316 204.999 6.31V20.605C210.236 20.895 215.474 21.189 220.711 21.5C222.062 21.58 222.937 21.128 223.828 20.185C227.558 16.23 231.358 12.339 235.123 8.416C235.646 7.871 236.119 7.276 236.632 6.685C236.311 6.478 236.183 6.323 236.054 6.323Z" fill="#96BFD8"/>
<path fill-rule="evenodd" clip-rule="evenodd" d="M703.551 453.723C691.856 453.723 680.303 453.723 668.522 453.723C667.253 444.437 665.989 435.203 664.684 425.686C665.514 425.895 666.1 425.984 666.643 426.187C678.313 430.539 689.977 434.899 701.639 439.267C703.702 440.039 703.717 440.058 703.731 442.14C703.751 445.257 703.747 448.376 703.729 451.494C703.725 452.191 703.621 452.888 703.551 453.723Z" fill="#80AFCF"/>
<path fill-rule="evenodd" clip-rule="evenodd" d="M364.675 30.201C365.454 22.349 366.234 14.497 367.005 6.729C368.95 6.185 397.832 6.045 401.305 6.57C389.083 14.646 377.138 22.539 365.193 30.432C365.021 30.354 364.847 30.278 364.675 30.201Z" fill="#80AFCF"/>
<path fill-rule="evenodd" clip-rule="evenodd" d="M538.135 6.23199C547.032 6.23199 555.694 6.23199 564.737 6.23199C560.641 15.023 556.647 23.598 552.631 32.218C551.271 30.914 540.328 11.279 538.135 6.23199Z" fill="#80AFCF"/>
<path fill-rule="evenodd" clip-rule="evenodd" d="M33.2899 154.087C24.0249 156.049 15.3179 157.893 6.39795 159.781C6.39795 152.296 6.39795 145.137 6.39795 137.944C6.41495 137.933 6.47395 137.881 6.54195 137.848C6.60795 137.815 6.71095 137.76 6.75395 137.786C15.0119 142.79 23.268 147.799 31.518 152.815C31.978 153.096 32.3969 153.443 33.2899 154.087Z" fill="#6A97C9"/>
<mask id="mask0_202_6" style="mask-type:luminance" maskUnits="userSpaceOnUse" x="0" y="0" width="710" height="460">
<path d="M710 0H0V460H710V0Z" fill="white"/>
</mask>
<g mask="url(#mask0_202_6)">
<path d="M286.697 -36.303C265.812 -14.603 244.927 7.09703 224.043 28.797C180.342 74.204 136.642 119.61 92.941 165.016C54.856 204.589 16.771 244.162 -21.314 283.733C-29.644 292.388 -37.973 301.043 -46.302 309.697C-53.008 316.665 -42.414 327.285 -35.696 320.304C-14.811 298.604 6.074 276.904 26.958 255.203C70.659 209.796 114.359 164.39 158.06 118.984C196.145 79.412 234.23 39.839 272.316 0.267025C280.646 -8.38797 288.975 -17.042 297.304 -25.697C304.01 -32.663 293.416 -43.283 286.697 -36.303Z" fill="white"/>
<path d="M198.007 74.232C221.137 82.417 244.268 90.602 267.399 98.786C321.326 117.868 375.252 136.95 429.178 156.031C490.702 177.801 552.226 199.571 613.749 221.341C659.673 237.591 705.596 253.841 751.518 270.09C762.014 273.805 772.51 277.519 783.005 281.233C792.149 284.467 796.046 269.972 786.993 266.768C763.862 258.583 740.731 250.399 717.6 242.214C663.674 223.132 609.748 204.05 555.821 184.969C494.298 163.199 432.773 141.429 371.25 119.659C325.327 103.41 279.404 87.16 233.481 70.91C222.985 67.196 212.489 63.482 201.993 59.768C192.852 56.533 188.954 71.029 198.007 74.232Z" fill="white"/>
<path d="M149.769 113.994C160.2 144.208 170.631 174.421 181.061 204.635C201.929 265.081 222.797 325.527 243.666 385.973C259.335 431.359 275.004 476.745 290.673 522.132C292.038 526.086 293.403 530.04 294.768 533.994C297.905 543.079 312.397 539.175 309.232 530.006C298.801 499.793 288.37 469.579 277.94 439.365C257.072 378.92 236.204 318.473 215.335 258.027C199.666 212.641 183.997 167.255 168.328 121.868C166.963 117.914 165.598 113.96 164.233 110.006C161.096 100.921 146.603 104.826 149.769 113.994Z" fill="white"/>
<path d="M464.963 165.893C498.565 143.294 532.165 120.696 565.766 98.098C613.654 65.89 661.542 33.683 709.43 1.47599C714.882 -2.19101 720.333 -5.85801 725.785 -9.52401C733.765 -14.891 726.267 -27.892 718.215 -22.476C684.613 0.12299 651.013 22.721 617.412 45.319C569.524 77.527 521.636 109.734 473.748 141.941C468.296 145.608 462.845 149.274 457.393 152.941C449.413 158.308 456.911 171.309 464.963 165.893Z" fill="white"/>
<path d="M532.5 189.001C531.073 228.232 529.646 267.464 528.22 306.696C526.038 366.697 523.857 426.698 521.675 486.7C521.283 497.467 520.892 508.234 520.5 519.001C520.148 528.679 535.149 528.645 535.5 519.001C536.927 479.77 538.354 440.538 539.78 401.306C541.962 341.305 544.143 281.304 546.325 221.302C546.717 210.535 547.108 199.768 547.5 189.001C547.852 179.323 532.851 179.357 532.5 189.001Z" fill="white"/>
<path d="M222.332 311.294C190.282 345.257 158.232 379.22 126.183 413.183C103.688 437.021 81.193 460.859 58.698 484.697C52.066 491.725 62.654 502.352 69.304 495.304C101.354 461.341 133.404 427.378 165.453 393.415C187.948 369.577 210.443 345.739 232.938 321.901C239.571 314.874 228.983 304.247 222.332 311.294Z" fill="white"/>
<path d="M97.611 168.436C57.134 143.622 16.656 118.807 -23.821 93.992C-24.619 93.503 -25.417 93.014 -26.215 92.525C-34.486 87.455 -42.015 100.432 -33.785 105.477C6.69203 130.291 47.17 155.106 87.647 179.921C88.445 180.41 89.243 180.899 90.041 181.388C98.311 186.458 105.841 173.481 97.611 168.436Z" fill="white"/>
<path d="M271.786 432.476C344.348 397.835 416.459 362.237 488.582 326.695C505.617 318.299 522.649 309.898 539.672 301.476C548.343 297.187 540.74 284.25 532.102 288.525C479.579 314.51 426.996 340.377 374.356 366.124C337.705 384.051 301.036 401.947 264.215 419.525C255.489 423.69 263.104 436.622 271.786 432.476Z" fill="white"/>
<path d="M573.476 84.215C550.215 41.516 526.954 -1.183 503.692 -43.883C502.621 -45.85 501.548 -47.818 500.476 -49.785C495.848 -58.281 482.896 -50.711 487.525 -42.215C510.786 0.484002 534.047 43.183 557.309 85.883C558.38 87.85 559.453 89.818 560.525 91.785C565.152 100.281 578.104 92.712 573.476 84.215Z" fill="white"/>
<path d="M532.006 369.233C576.482 385.859 620.957 402.485 665.433 419.112C692.29 429.152 719.149 439.192 746.006 449.233C755.085 452.627 758.969 438.124 749.994 434.768C705.518 418.142 661.043 401.516 616.567 384.889C589.71 374.849 562.851 364.809 535.994 354.768C526.915 351.375 523.031 365.878 532.006 369.233Z" fill="white"/>
<path d="M350 116.001C354.892 66.781 359.783 17.561 364.674 -31.659C365.116 -36.105 365.558 -40.552 366 -44.999C366.638 -51.416 356.632 -51.354 356 -44.999C351.108 4.22102 346.217 53.441 341.325 102.661C340.883 107.107 340.441 111.554 339.999 116.001C339.363 122.417 349.369 122.355 350 116.001Z" fill="white"/>
<path d="M620.477 56.318C660.179 81.583 699.881 106.848 739.584 132.113C740.215 132.515 740.847 132.916 741.477 133.318C746.935 136.791 751.946 128.134 746.524 124.683C706.822 99.418 667.12 74.153 627.417 48.888C626.786 48.486 626.154 48.085 625.524 47.683C620.065 44.21 615.055 52.867 620.477 56.318Z" fill="white"/>
<path d="M388.001 136.001C387.385 183.235 386.769 230.47 386.152 277.704C385.768 307.137 385.384 336.568 385.001 366.001C384.917 372.452 394.917 372.444 395.001 366.001C395.617 318.767 396.233 271.532 396.85 224.298C397.234 194.865 397.617 165.433 398.001 136.001C398.085 129.549 388.085 129.557 388.001 136.001Z" fill="white"/>
<path d="M676.683 235.477C656.583 280.996 636.485 326.515 616.385 372.034C613.818 377.849 611.25 383.663 608.683 389.477C606.104 395.319 614.718 400.412 617.318 394.524C637.418 349.005 657.516 303.486 677.616 257.967C680.183 252.153 682.751 246.338 685.318 240.524C687.896 234.682 679.282 229.588 676.683 235.477Z" fill="white"/>
<path d="M646.179 408.33C650.846 442.663 655.512 476.997 660.179 511.33C661.044 517.695 670.678 514.975 669.822 508.672C665.155 474.339 660.489 440.005 655.822 405.672C654.956 399.306 645.322 402.027 646.179 408.33Z" fill="white"/>
<path d="M451.179 331.671C434.675 378.39 418.172 425.108 401.668 471.826C396.505 486.441 391.343 501.056 386.18 515.671C384.027 521.768 393.69 524.366 395.823 518.329C412.327 471.61 428.83 424.893 445.334 378.174C450.497 363.559 455.659 348.945 460.822 334.329C462.975 328.233 453.312 325.634 451.179 331.671Z" fill="white"/>
<path d="M152.683 392.524C177.438 434.827 202.193 477.129 226.948 519.432C228.527 522.129 230.105 524.827 231.683 527.524C234.937 533.084 243.582 528.054 240.318 522.477C215.563 480.174 190.808 437.872 166.053 395.569C164.474 392.872 162.896 390.174 161.318 387.477C158.063 381.917 149.419 386.947 152.683 392.524Z" fill="white"/>
<path d="M124.001 148.001C123.758 98.917 123.515 49.833 123.272 0.749012C123.181 -17.5 123.091 -35.75 123.001 -54C122.969 -60.447 112.969 -60.45 113.001 -54C113.244 -4.91599 113.487 44.168 113.73 93.252C113.82 111.501 113.911 129.751 114.001 148C114.032 154.447 124.032 154.451 124.001 148.001Z" fill="white"/>
<path d="M196.524 348.683C152.108 328.365 107.691 308.047 63.275 287.729C45.025 279.38 26.775 271.032 8.52402 262.683C2.70502 260.021 -2.38098 268.638 3.47702 271.318C47.893 291.636 92.31 311.954 136.726 332.272C154.976 340.621 173.226 348.969 191.477 357.318C197.296 359.98 202.382 351.363 196.524 348.683Z" fill="white"/>
<path d="M293.683 98.477C267.549 141.086 241.415 183.695 215.282 226.305C210.749 233.696 206.216 241.087 201.683 248.477C198.302 253.99 206.953 259.009 210.318 253.524C236.452 210.915 262.586 168.306 288.719 125.696C293.252 118.305 297.785 110.914 302.318 103.524C305.699 98.011 297.048 92.991 293.683 98.477Z" fill="white"/>
<path d="M555.238 58.893C571.571 23.893 587.904 -11.107 604.238 -46.107C606.269 -50.461 599.805 -54.272 597.761 -49.892C581.428 -14.892 565.095 20.108 548.761 55.108C546.73 59.462 553.194 63.273 555.238 58.893Z" fill="white"/>
<path d="M551.384 97.998C557.384 131.331 563.384 164.664 569.384 197.998C570.241 202.753 577.467 200.732 576.616 196.004C570.616 162.671 564.616 129.337 558.616 96.004C557.76 91.249 550.533 93.27 551.384 97.998Z" fill="white"/>
<path d="M538.003 267.617C576.337 277.95 614.67 288.284 653.003 298.617C657.68 299.878 659.662 292.642 654.997 291.385C616.663 281.052 578.33 270.718 539.997 260.385C535.32 259.124 533.338 266.359 538.003 267.617Z" fill="white"/>
<path d="M228.003 221.617C275.257 237.173 322.511 252.728 369.765 268.284C376.178 270.394 382.59 272.506 389.003 274.617C393.61 276.134 395.568 268.889 390.997 267.385C343.743 251.829 296.489 236.274 249.235 220.718C242.822 218.607 236.409 216.496 229.997 214.384C225.39 212.868 223.432 220.111 228.003 221.617Z" fill="white"/>
<path d="M17.617 127.998C33.028 80.681 48.44 33.364 63.852 -13.953C67.44 -24.97 71.029 -35.986 74.617 -47.003C76.119 -51.615 68.876 -53.575 67.385 -48.997C51.973 -1.67999 36.561 45.637 21.15 92.954C17.562 103.971 13.973 114.987 10.385 126.004C8.88197 130.616 16.125 132.575 17.617 127.998Z" fill="white"/>
<path d="M49.384 289.003C37.714 336.636 26.044 384.269 14.374 431.901C9.70998 450.935 5.04698 469.969 0.383979 489.003C-0.767021 493.7 6.46598 495.694 7.61598 490.997C19.286 443.364 30.956 395.731 42.626 348.1C47.29 329.066 51.953 310.032 56.616 290.997C57.768 286.3 50.535 284.307 49.384 289.003Z" fill="white"/>
<path d="M436.107 394.239C467.107 409.572 498.107 424.905 529.107 440.239C533.426 442.376 537.228 435.907 532.892 433.762C501.892 418.429 470.892 403.096 439.892 387.762C435.573 385.625 431.771 392.094 436.107 394.239Z" fill="white"/>
<path d="M353.893 54.238C395.189 26.962 436.485 -0.31399 477.782 -27.59C490.485 -35.981 503.189 -44.371 515.892 -52.762C519.908 -55.414 516.156 -61.912 512.107 -59.238C470.811 -31.962 429.514 -4.68599 388.218 22.59C375.514 30.981 362.811 39.371 350.107 47.762C346.092 50.415 349.844 56.913 353.893 54.238Z" fill="white"/>
<path d="M38.502 59.809C64.502 67.475 90.502 75.142 116.502 82.809C118.827 83.495 119.813 79.875 117.499 79.193C91.499 71.527 65.499 63.86 39.499 56.193C37.174 55.507 36.188 59.126 38.502 59.809Z" fill="white"/>
<path d="M185.381 190.054C160.638 230.75 135.895 271.447 111.151 312.143C110.561 313.113 109.971 314.083 109.381 315.054C108.121 317.126 111.365 319.009 112.619 316.947C137.362 276.251 162.105 235.554 186.849 194.859C187.439 193.888 188.029 192.918 188.619 191.947C189.879 189.874 186.635 187.992 185.381 190.054Z" fill="white"/>
<path d="M23 417.875C58.667 419.208 94.333 420.542 130 421.875C132.419 421.966 132.411 418.215 130 418.125C94.333 416.792 58.667 415.458 23 414.125C20.581 414.035 20.59 417.786 23 417.875Z" fill="white"/>
<path d="M391.001 236.875C438.534 233.945 486.067 231.015 533.6 228.085C534.734 228.015 535.867 227.945 537 227.875C539.402 227.727 539.416 223.976 537 224.125C489.467 227.055 441.935 229.985 394.401 232.915C393.267 232.985 392.134 233.055 391.001 233.125C388.599 233.274 388.585 237.025 391.001 236.875Z" fill="white"/>
<path d="M595.192 386.503C584.525 425.503 573.858 464.503 563.192 503.503C562.552 505.839 566.171 506.829 566.807 504.499C577.474 465.499 588.141 426.499 598.807 387.499C599.447 385.163 595.829 384.172 595.192 386.503Z" fill="white"/>
<path d="M635.498 348.808C674.832 340.142 714.165 331.475 753.498 322.808C755.859 322.288 754.858 318.673 752.502 319.193C713.168 327.859 673.835 336.526 634.502 345.193C632.141 345.712 633.142 349.328 635.498 348.808Z" fill="white"/>
<path d="M670.192 83.502C652.31 126.219 634.428 168.936 616.548 211.652C616.429 211.935 616.311 212.218 616.192 212.502C615.258 214.732 618.888 215.695 619.807 213.499C637.689 170.782 655.571 128.066 673.452 85.349C673.571 85.066 673.689 84.783 673.807 84.499C674.741 82.269 671.111 81.306 670.192 83.502Z" fill="white"/>
<path d="M520.381 7.05402C493.318 48.552 466.254 90.049 439.191 131.546C436.255 136.049 433.318 140.551 430.381 145.054C429.056 147.086 432.304 148.963 433.619 146.947C460.682 105.449 487.746 63.952 514.809 22.455C517.746 17.953 520.682 13.45 523.619 8.94702C524.944 6.91502 521.696 5.03802 520.381 7.05402Z" fill="white"/>
<path d="M333.192 254.503C320.175 302.333 307.158 350.164 294.14 397.995C292.824 402.831 291.508 407.667 290.192 412.503C289.556 414.84 293.174 415.83 293.808 413.499C306.825 365.669 319.842 317.838 332.86 270.007C334.176 265.171 335.492 260.335 336.808 255.499C337.444 253.162 333.827 252.171 333.192 254.503Z" fill="white"/>
<path d="M350.381 387.947C366.714 421.947 383.047 455.947 399.38 489.947C400.427 492.127 403.66 490.223 402.618 488.054C386.285 454.054 369.952 420.054 353.618 386.054C352.573 383.875 349.34 385.778 350.381 387.947Z" fill="white"/>
<path d="M231 28.125C193.334 26.125 155.667 24.125 118 22.125C115.583 21.997 115.595 25.747 118 25.875C155.667 27.875 193.333 29.875 231 31.875C233.418 32.004 233.406 28.253 231 28.125Z" fill="white"/>
<path d="M57.502 155.192C30.835 160.859 4.169 166.525 -22.498 172.192C-24.863 172.694 -23.86 176.309 -21.501 175.808C5.166 170.142 31.832 164.475 58.499 158.808C60.864 158.306 59.861 154.691 57.502 155.192Z" fill="white"/>
<path d="M274 139.126C240 139.126 206 139.126 172 139.126C169.582 139.126 169.582 142.876 172 142.876C206 142.876 240 142.876 274 142.876C276.419 142.876 276.419 139.126 274 139.126Z" fill="white"/>
</g>
<path d="M288.646 19.686C293.482 19.686 293.482 12.186 288.646 12.186C283.81 12.186 283.81 19.686 288.646 19.686Z" fill="#6DAF8C"/>
<path d="M288.646 31.686C293.482 31.686 293.482 24.186 288.646 24.186C283.81 24.186 283.81 31.686 288.646 31.686Z" fill="#6DAF8C"/>
<path d="M288.646 43.686C293.482 43.686 293.482 36.186 288.646 36.186C283.81 36.186 283.81 43.686 288.646 43.686Z" fill="#6DAF8C"/>
<path d="M603.484 236.461C608.321 236.461 608.321 228.961 603.484 228.961C598.647 228.961 598.647 236.461 603.484 236.461Z" fill="#6DAF8C"/>
<path d="M592.484 233.46C597.321 233.46 597.321 225.96 592.484 225.96C587.647 225.96 587.647 233.46 592.484 233.46Z" fill="#6DAF8C"/>
<path d="M318.323 381.622C323.159 381.622 323.159 374.122 318.323 374.122C313.487 374.122 313.486 381.622 318.323 381.622Z" fill="#6DAF8C"/>
<path d="M331 376.75C335.837 376.75 335.837 369.25 331 369.25C326.164 369.25 326.164 376.75 331 376.75Z" fill="#6DAF8C"/>
<path d="M344 371.25C348.837 371.25 348.837 363.75 344 363.75C339.164 363.75 339.164 371.25 344 371.25Z" fill="#6DAF8C"/>
<path d="M85.775 285.493C90.611 285.493 90.611 277.993 85.775 277.993C80.938 277.993 80.938 285.493 85.775 285.493Z" fill="#6DAF8C"/>
<path d="M97.251 291C102.087 291 102.087 283.5 97.251 283.5C92.414 283.5 92.414 291 97.251 291Z" fill="#6DAF8C"/>
<path d="M108.001 297C112.838 297 112.838 289.5 108.001 289.5C103.164 289.5 103.164 297 108.001 297Z" fill="#6DAF8C"/>
<path d="M156.001 117.667C162.45 117.667 162.45 107.667 156.001 107.667C149.552 107.667 149.552 117.667 156.001 117.667Z" fill="#CCE6F4"/>
<path d="M534.334 302.668C540.782 302.668 540.782 292.668 534.334 292.668C527.886 292.668 527.886 302.668 534.334 302.668Z" fill="#CCE6F4"/>
<path d="M468 163.667C474.448 163.667 474.448 153.667 468 153.667C461.552 153.667 461.552 163.667 468 163.667Z" fill="#CCE6F4"/>
<path d="M267 431.333C273.449 431.333 273.449 421.333 267 421.333C260.552 421.333 260.552 431.333 267 431.333Z" fill="#CCE6F4"/>
<path d="M356.913 205.693C350.682 199.975 342.444 180.674 356.933 180.654C371.708 180.638 362.905 199.597 356.913 205.693Z" fill="#C72E70"/>
<path d="M356.687 192.329C361.542 192.329 361.542 185.045 356.687 185.045C351.831 185.045 351.831 192.329 356.687 192.329Z" fill="white"/>
<path d="M64.747 370.938C58.517 365.221 50.278 345.92 64.767 345.9C79.543 345.883 70.739 364.842 64.747 370.938Z" fill="#C72E70"/>
<path d="M64.52 357.575C69.375 357.575 69.375 350.292 64.52 350.292C59.665 350.292 59.665 357.575 64.52 357.575Z" fill="white"/>
<path d="M48.611 113.321C42.381 107.603 34.142 88.302 48.631 88.282C63.407 88.266 54.603 107.225 48.611 113.321Z" fill="#C72E70"/>
<path d="M48.384 99.957C53.239 99.957 53.239 92.673 48.384 92.673C43.529 92.674 43.529 99.957 48.384 99.957Z" fill="white"/>
<path d="M449.195 40.397C442.965 34.679 434.726 15.378 449.215 15.358C463.99 15.342 455.188 34.301 449.195 40.397Z" fill="#C72E70"/>
<path d="M448.969 27.034C453.824 27.034 453.824 19.75 448.969 19.75C444.114 19.75 444.113 27.034 448.969 27.034Z" fill="white"/>
<path d="M504.252 358.269C498.021 352.551 489.783 333.25 504.271 333.231C519.047 333.213 510.244 352.172 504.252 358.269Z" fill="#C72E70"/>
<path d="M504.025 344.905C508.88 344.905 508.88 337.622 504.025 337.622C499.17 337.622 499.17 344.905 504.025 344.905Z" fill="white"/>
<path d="M277.643 374.251C271.413 368.533 263.174 349.232 277.663 349.213C292.439 349.196 283.635 368.155 277.643 374.251Z" fill="#C72E70"/>
<path d="M277.417 360.887C282.272 360.887 282.272 353.604 277.417 353.604C272.561 353.604 272.561 360.887 277.417 360.887Z" fill="white"/>
<path d="M240.171 127.706C233.941 121.989 225.702 102.688 240.191 102.668C254.966 102.651 246.163 121.61 240.171 127.706Z" fill="#C72E70"/>
<path d="M239.944 114.342C244.799 114.342 244.799 107.059 239.944 107.059C235.088 107.059 235.088 114.342 239.944 114.342Z" fill="white"/>
<path d="M682.619 153.753C676.388 148.035 668.15 128.734 682.638 128.714C697.414 128.698 688.611 147.657 682.619 153.753Z" fill="#C72E70"/>
<path d="M682.393 140.389C687.249 140.389 687.249 133.105 682.393 133.105C677.537 133.105 677.537 140.389 682.393 140.389Z" fill="white"/>
</svg>
