<svg width="187" height="94" viewBox="0 0 187 94" fill="none" xmlns="http://www.w3.org/2000/svg">
<path d="M110.69 62.0709H76.0198C73.3584 62.0709 70.8059 61.0137 68.924 59.1317C67.0421 57.2498 65.9848 54.6974 65.9848 52.0359C65.9848 49.3745 67.0421 46.822 68.924 44.9401C70.8059 43.0582 73.3584 42.0009 76.0198 42.0009H175.23V38.9309H76.0198C72.5534 38.9309 69.229 40.3079 66.7779 42.759C64.3268 45.2101 62.9498 48.5345 62.9498 52.0009C62.9498 55.4673 64.3268 58.7917 66.7779 61.2428C69.229 63.6939 72.5534 65.0709 76.0198 65.0709H110.69C113.342 65.0709 115.886 66.1245 117.761 67.9998C119.636 69.8752 120.69 72.4187 120.69 75.0709V80.9309C120.69 83.5831 119.636 86.1266 117.761 88.002C115.886 89.8773 113.342 90.9309 110.69 90.9309H13.6898V93.9309H110.69C114.143 93.9257 117.453 92.5566 119.901 90.1218C122.349 87.6869 123.736 84.3835 123.76 80.9309V75.1509C123.755 71.6852 122.376 68.3629 119.926 65.9113C117.477 63.4598 114.155 62.0788 110.69 62.0709Z" fill="white"/>
<path d="M15.5298 88.7409L25.8098 65.0209C27.2525 61.6658 27.3065 57.8757 25.9598 54.4809C25.3321 52.8711 24.3897 51.4025 23.1878 50.1611C21.9859 48.9197 20.5486 47.9303 18.9598 47.2509C16.9553 46.4014 14.784 46.0184 12.6098 46.1309C10.424 46.2437 8.30073 46.8999 6.4324 48.0401C4.56406 49.1803 3.00962 50.7685 1.90983 52.6609C0.752291 54.6151 0.0995536 56.8268 0.0105165 59.0964C-0.0785207 61.366 0.398945 63.622 1.39983 65.6609L12.7698 88.8109C12.8947 89.0653 13.0883 89.2797 13.3286 89.4299C13.5689 89.5801 13.8464 89.6601 14.1298 89.6609C14.4274 89.6603 14.7183 89.5729 14.9669 89.4095C15.2156 89.2461 15.4112 89.0138 15.5298 88.7409ZM14.0498 84.5209L4.12983 64.3109C3.35206 62.725 2.98137 60.9703 3.0512 59.2053C3.12103 57.4403 3.62919 55.7205 4.52983 54.2009C5.36901 52.7435 6.56219 51.5213 7.99899 50.6474C9.43578 49.7734 11.0698 49.2759 12.7498 49.2009H13.3798C14.8991 49.1969 16.4031 49.5032 17.7998 50.1009C19.0209 50.6239 20.1256 51.3849 21.0493 52.3395C21.973 53.2942 22.6973 54.4233 23.1798 55.6609C24.226 58.3025 24.1829 61.2511 23.0598 63.8609L14.0498 84.5209Z" fill="white"/>
<path d="M13.4698 52.5109C12.1328 52.5109 10.8258 52.9074 9.71416 53.6502C8.60248 54.393 7.73603 55.4487 7.22439 56.684C6.71274 57.9192 6.57887 59.2784 6.8397 60.5897C7.10054 61.901 7.74437 63.1055 8.68977 64.0509C9.63517 64.9964 10.8397 65.6402 12.151 65.901C13.4623 66.1619 14.8215 66.028 16.0568 65.5163C17.292 65.0047 18.3477 64.1382 19.0905 63.0266C19.8333 61.9149 20.2298 60.6079 20.2298 59.2709C20.2298 58.3832 20.055 57.5041 19.7152 56.684C19.3755 55.8638 18.8776 55.1186 18.2499 54.4909C17.6221 53.8631 16.8769 53.3652 16.0568 53.0255C15.2366 52.6858 14.3575 52.5109 13.4698 52.5109ZM13.4698 62.9909C12.7341 62.9909 12.0148 62.7727 11.4031 62.364C10.7913 61.9552 10.3145 61.3742 10.033 60.6945C9.75142 60.0148 9.67775 59.2668 9.82129 58.5452C9.96483 57.8236 10.3191 57.1607 10.8394 56.6405C11.3596 56.1202 12.0225 55.7659 12.7441 55.6224C13.4657 55.4788 14.2137 55.5525 14.8934 55.8341C15.5731 56.1156 16.1541 56.5924 16.5629 57.2042C16.9716 57.8159 17.1898 58.5352 17.1898 59.2709C17.1872 60.2567 16.7944 61.2014 16.0973 61.8984C15.4003 62.5955 14.4556 62.9883 13.4698 62.9909Z" fill="white"/>
<path d="M173.92 35.6509C174.044 35.906 174.237 36.1211 174.478 36.2714C174.718 36.4217 174.996 36.5013 175.28 36.5009C175.569 36.4953 175.85 36.4064 176.089 36.245C176.329 36.0836 176.516 35.8565 176.63 35.5909L185.11 16.0209C186.329 13.189 186.38 9.98976 185.25 7.12091C184.724 5.76499 183.934 4.52683 182.927 3.47806C181.919 2.42929 180.714 1.59073 179.38 1.01091C177.692 0.274799 175.859 -0.0671877 174.02 0.0109104C172.181 0.11387 170.397 0.671062 168.826 1.63263C167.255 2.59419 165.948 3.93013 165.02 5.52091C164.038 7.17351 163.484 9.04532 163.409 10.9663C163.334 12.8873 163.74 14.7967 164.59 16.5209L173.92 35.6509ZM167.59 7.12091C168.26 5.95722 169.212 4.98087 170.358 4.28183C171.505 3.58279 172.809 3.18355 174.15 3.12091H174.62C175.84 3.11784 177.048 3.3628 178.17 3.84091C179.145 4.25882 180.028 4.8666 180.766 5.62886C181.504 6.39112 182.083 7.29264 182.47 8.28091C183.303 10.3986 183.267 12.7595 182.37 14.8509L175.19 31.3609L167.27 15.2109C166.644 13.9427 166.346 12.5382 166.402 11.1253C166.458 9.71231 166.866 8.33578 167.59 7.12091Z" fill="white"/>
<path d="M174.73 17.0009C175.885 17.0009 177.014 16.6584 177.974 16.0167C178.935 15.375 179.683 14.4629 180.125 13.3958C180.567 12.3287 180.683 11.1544 180.458 10.0216C180.232 8.88873 179.676 7.84815 178.859 7.03141C178.043 6.21467 177.002 5.65846 175.869 5.43312C174.736 5.20779 173.562 5.32344 172.495 5.76545C171.428 6.20747 170.516 6.956 169.874 7.91638C169.232 8.87676 168.89 10.0059 168.89 11.1609C168.892 12.709 169.509 14.1929 170.603 15.2875C171.698 16.3821 173.182 16.9983 174.73 17.0009ZM174.73 8.36091C175.284 8.36091 175.825 8.52513 176.285 8.8328C176.746 9.14046 177.105 9.57776 177.317 10.0894C177.529 10.601 177.584 11.164 177.476 11.7072C177.368 12.2503 177.101 12.7492 176.71 13.1408C176.318 13.5324 175.819 13.7991 175.276 13.9071C174.733 14.0151 174.17 13.9597 173.658 13.7478C173.147 13.5358 172.709 13.177 172.402 12.7165C172.094 12.256 171.93 11.7147 171.93 11.1609C171.93 10.4183 172.225 9.70611 172.75 9.18101C173.275 8.65591 173.987 8.36091 174.73 8.36091Z" fill="white"/>
</svg>
