<svg width="89" height="94" viewBox="0 0 89 94" fill="none" xmlns="http://www.w3.org/2000/svg">
<path d="M75.6898 62.0709H41.0198C38.3584 62.0709 35.8059 61.0137 33.924 59.1317C32.0421 57.2498 30.9848 54.6974 30.9848 52.0359C30.9848 49.3745 32.0421 46.822 33.924 44.9401C35.8059 43.0582 38.3584 42.0009 41.0198 42.0009H78.2298V38.9309H41.0198C37.5534 38.9309 34.229 40.3079 31.7779 42.759C29.3268 45.2101 27.9498 48.5345 27.9498 52.0009C27.9498 55.4673 29.3268 58.7917 31.7779 61.2428C34.229 63.6939 37.5534 65.0709 41.0198 65.0709H75.6898C78.342 65.0709 80.8855 66.1245 82.7609 67.9998C84.6363 69.8752 85.6898 72.4187 85.6898 75.0709V80.9309C85.6898 83.5831 84.6363 86.1266 82.7609 88.002C80.8855 89.8773 78.342 90.9309 75.6898 90.9309H14.6898V93.9309H75.6898C79.1425 93.9257 82.4533 92.5566 84.9013 90.1218C87.3492 87.6869 88.7361 84.3835 88.7598 80.9309V75.1509C88.7545 71.6852 87.3761 68.3629 84.9265 65.9113C82.4768 63.4598 79.1555 62.0788 75.6898 62.0709Z" fill="black"/>
<path d="M15.5298 88.7409L25.8098 65.0209C27.2525 61.6658 27.3065 57.8757 25.9598 54.4809C25.3321 52.8711 24.3897 51.4025 23.1878 50.1611C21.9859 48.9197 20.5486 47.9303 18.9598 47.2509C16.9553 46.4014 14.784 46.0184 12.6098 46.1309C10.424 46.2437 8.30073 46.8999 6.4324 48.0401C4.56406 49.1803 3.00962 50.7685 1.90983 52.6609C0.752291 54.6151 0.0995536 56.8268 0.0105165 59.0964C-0.0785207 61.366 0.398945 63.622 1.39983 65.6609L12.7698 88.8109C12.8947 89.0653 13.0883 89.2797 13.3286 89.4299C13.5689 89.5801 13.8464 89.6601 14.1298 89.6609C14.4274 89.6603 14.7183 89.5729 14.9669 89.4095C15.2156 89.2461 15.4112 89.0138 15.5298 88.7409ZM14.0498 84.5209L4.12983 64.3109C3.35206 62.725 2.98137 60.9703 3.0512 59.2053C3.12103 57.4403 3.62919 55.7205 4.52983 54.2009C5.36901 52.7435 6.56219 51.5213 7.99899 50.6474C9.43578 49.7734 11.0698 49.2759 12.7498 49.2009H13.3798C14.8991 49.1969 16.4031 49.5032 17.7998 50.1009C19.0209 50.6239 20.1256 51.3849 21.0493 52.3395C21.973 53.2942 22.6973 54.4233 23.1798 55.6609C24.226 58.3025 24.1829 61.2511 23.0598 63.8609L14.0498 84.5209Z" fill="black"/>
<path d="M13.4698 52.5109C12.1328 52.5109 10.8259 52.9074 9.71419 53.6502C8.60251 54.393 7.73606 55.4487 7.22442 56.684C6.71277 57.9192 6.5789 59.2784 6.83973 60.5897C7.10057 61.901 7.7444 63.1055 8.6898 64.0509C9.6352 64.9964 10.8397 65.6402 12.151 65.901C13.4623 66.1619 14.8216 66.028 16.0568 65.5163C17.292 65.0047 18.3478 64.1382 19.0906 63.0266C19.8334 61.9149 20.2298 60.6079 20.2298 59.2709C20.2298 58.3832 20.055 57.5041 19.7153 56.684C19.3755 55.8638 18.8776 55.1186 18.2499 54.4909C17.6222 53.8631 16.8769 53.3652 16.0568 53.0255C15.2366 52.6858 14.3576 52.5109 13.4698 52.5109ZM13.4698 62.9909C12.7341 62.9909 12.0149 62.7727 11.4031 62.364C10.7914 61.9552 10.3146 61.3742 10.033 60.6945C9.75145 60.0148 9.67778 59.2668 9.82132 58.5452C9.96486 57.8236 10.3192 57.1607 10.8394 56.6405C11.3597 56.1202 12.0225 55.7659 12.7441 55.6224C13.4657 55.4788 14.2137 55.5525 14.8934 55.8341C15.5732 56.1156 16.1542 56.5924 16.5629 57.2042C16.9717 57.8159 17.1898 58.5352 17.1898 59.2709C17.1872 60.2567 16.7944 61.2014 16.0974 61.8984C15.4003 62.5955 14.4556 62.9883 13.4698 62.9909Z" fill="black"/>
<path d="M75.9198 35.6509C76.0438 35.906 76.2371 36.1211 76.4777 36.2714C76.7182 36.4217 76.9962 36.5013 77.2798 36.5009C77.5686 36.4953 77.8496 36.4064 78.089 36.245C78.3285 36.0836 78.5163 35.8565 78.6298 35.5909L87.1098 16.0209C88.3294 13.189 88.3797 9.98976 87.2498 7.12091C86.7239 5.76499 85.9343 4.52683 84.9267 3.47806C83.9191 2.42929 82.7136 1.59073 81.3798 1.01091C79.6923 0.274799 77.8593 -0.0671877 76.0198 0.0109104C74.1811 0.11387 72.3966 0.671062 70.826 1.63263C69.2554 2.59419 67.9477 3.93013 67.0198 5.52091C66.0376 7.17351 65.4837 9.04532 65.4086 10.9663C65.3336 12.8873 65.7396 14.7967 66.5898 16.5209L75.9198 35.6509ZM69.5898 7.12091C70.2597 5.95722 71.2118 4.98087 72.3582 4.28183C73.5046 3.58279 74.8086 3.18355 76.1498 3.12091H76.6198C77.8397 3.11784 79.0475 3.3628 80.1698 3.84091C81.1452 4.25882 82.0277 4.8666 82.7659 5.62886C83.5042 6.39112 84.0834 7.29264 84.4698 8.28091C85.303 10.3986 85.2671 12.7595 84.3698 14.8509L77.1898 31.3609L69.2698 15.2109C68.6444 13.9427 68.3461 12.5382 68.402 11.1253C68.4579 9.71231 68.8662 8.33578 69.5898 7.12091Z" fill="black"/>
<path d="M76.7298 17.0009C77.8849 17.0009 79.014 16.6584 79.9744 16.0167C80.9347 15.375 81.6833 14.4629 82.1253 13.3958C82.5673 12.3287 82.683 11.1544 82.4576 10.0216C82.2323 8.88873 81.6761 7.84815 80.8593 7.03141C80.0426 6.21467 79.002 5.65846 77.8692 5.43312C76.7363 5.20779 75.5621 5.32344 74.495 5.76545C73.4278 6.20747 72.5158 6.956 71.874 7.91638C71.2323 8.87676 70.8898 10.0059 70.8898 11.1609C70.8925 12.709 71.5086 14.1929 72.6032 15.2875C73.6979 16.3821 75.1818 16.9983 76.7298 17.0009ZM76.7298 8.36091C77.2836 8.36091 77.825 8.52513 78.2854 8.8328C78.7459 9.14046 79.1048 9.57776 79.3167 10.0894C79.5286 10.601 79.5841 11.164 79.476 11.7072C79.368 12.2503 79.1013 12.7492 78.7097 13.1408C78.3181 13.5324 77.8192 13.7991 77.2761 13.9071C76.7329 14.0151 76.17 13.9597 75.6583 13.7478C75.1467 13.5358 74.7094 13.177 74.4017 12.7165C74.0941 12.256 73.9298 11.7147 73.9298 11.1609C73.9298 10.4183 74.2248 9.70611 74.7499 9.18101C75.275 8.65591 75.9872 8.36091 76.7298 8.36091Z" fill="black"/>
</svg>
