<svg width="58" height="58" viewBox="0 0 58 58" fill="none" xmlns="http://www.w3.org/2000/svg">
<path d="M56.879 26.293L31.707 1.12098C30.989 0.403212 30.0153 0 29 0C27.9848 0 27.0111 0.403212 26.293 1.12098L1.12102 26.293C0.764321 26.6476 0.481561 27.0694 0.289131 27.5341C0.0967016 27.9988 -0.00156846 28.497 1.89284e-05 29C0.00307358 30.0146 0.405833 30.9872 1.12102 31.707L26.293 56.879C27.0226 57.5746 27.992 57.9626 29 57.9626C30.0081 57.9626 30.9774 57.5746 31.707 56.879L56.879 31.707C57.5942 30.9872 57.997 30.0146 58 29C58.0016 28.497 57.9033 27.9988 57.7109 27.5341C57.5185 27.0694 57.2357 26.6476 56.879 26.293ZM53.054 31.283L31.283 53.055C30.6774 53.6601 29.8562 54.0001 29 54.0001C28.1438 54.0001 27.3227 53.6601 26.717 53.055L4.94602 31.283C4.34228 30.6763 4.00233 29.8559 4.00002 29C3.99893 28.5758 4.08198 28.1556 4.24436 27.7637C4.40674 27.3719 4.64523 27.0161 4.94602 26.717L26.717 4.94598C27.332 4.35877 28.1497 4.03112 29 4.03112C29.8504 4.03112 30.668 4.35877 31.283 4.94598L53.054 26.717C53.3548 27.0161 53.5933 27.3719 53.7557 27.7637C53.9181 28.1556 54.0011 28.5758 54 29C53.9977 29.8559 53.6578 30.6763 53.054 31.283Z" fill="#FFD505"/>
<rect x="28.8668" y="1.24295" width="38.8034" height="38.4254" rx="1" transform="rotate(44.6992 28.8668 1.24295)" fill="#1E1E1E"/>
<path d="M29.869 6.36003C29.6385 6.12957 29.3259 6.00009 29 6.00009C28.6741 6.00009 28.3615 6.12957 28.131 6.36003L6.35999 28.131C6.12953 28.3615 6.00006 28.6741 6.00006 29C6.00006 29.326 6.12953 29.6386 6.35999 29.869L28.131 51.641C28.3654 51.864 28.6765 51.9883 29 51.9883C29.3235 51.9883 29.6346 51.864 29.869 51.641L51.64 29.869C51.8705 29.6386 51.9999 29.326 51.9999 29C51.9999 28.6741 51.8705 28.3615 51.64 28.131L29.869 6.36003ZM28 8.00003H30V10H28V8.00003ZM9.99999 30H7.99999V28H9.99999V30ZM30 50H28V48H30V50ZM40 27L38 25L32 31V42H26V31L20 25L18 27V19L26 19L24 21L29 26L34 21L32 19H40V27ZM50 30H48V28H50V30Z" fill="#FFD505"/>
</svg>
