<svg width="89" height="90" viewBox="0 0 89 90" fill="none" xmlns="http://www.w3.org/2000/svg">
<path fill-rule="evenodd" clip-rule="evenodd" d="M58.5509 50.6805L70.2499 62.3795L78.9335 53.6959L75.1444 39.1059H64.3164C62.6172 42.8559 60.6212 46.8018 58.5509 50.6805ZM37.4804 65.8328L42.6132 74.7508C43.1015 75.6493 44.4101 75.661 44.9062 74.7508L52.6445 61.3168L61.9765 70.6488L42.6875 89.9418H13.3755L37.4804 65.8328Z" fill="#BEAF8F"/>
<path fill-rule="evenodd" clip-rule="evenodd" d="M53.9884 58.9617C55.0626 57.0633 56.1603 55.0945 57.254 53.0906L69.324 65.1606C69.8357 65.6723 70.6638 65.6723 71.1756 65.1606L79.6951 56.6411L81.5779 63.895L55.5309 89.942H46.3903L64.7533 71.579C65.265 71.0673 65.265 70.2392 64.7533 69.7274L53.9884 58.9617ZM23.203 39.1067H12.379L0 86.7707L31.477 55.2907C28.5473 49.9977 25.5819 44.3567 23.203 39.1067Z" fill="#6DAF8C"/>
<path fill-rule="evenodd" clip-rule="evenodd" d="M59.2339 89.9425H88.3429L82.339 66.8335L59.2339 89.9425ZM32.8046 57.6687L0.531616 89.9417H9.67222L36.1212 63.4887C35.0587 61.6489 33.9413 59.696 32.8046 57.6687Z" fill="#80AFCF"/>
<g filter="url(#filter0_d_204_413)">
<path fill-rule="evenodd" clip-rule="evenodd" d="M25.121 37.0559C22.5819 31.3411 20.8593 26.2589 20.8593 22.9149C20.8593 16.5907 23.4218 10.8639 27.5663 6.72392C41.9573 -7.66708 66.6603 2.57942 66.6603 22.9149C66.6603 33.1489 51.2343 58.3449 43.7583 71.4579L34.063 54.5559C33.4302 53.927 25.7739 38.8409 25.313 37.4899C25.2779 37.3337 25.2109 37.1887 25.121 37.0559ZM51.195 15.5C44.5895 8.8945 33.242 13.5717 33.242 22.9154C33.242 32.2591 44.59 36.9584 51.195 30.3529C55.3044 26.2474 55.3044 19.609 51.195 15.5ZM43.7614 9.77872C55.4214 9.77872 61.3084 23.9467 53.0505 32.2047C44.7927 40.4625 30.6245 34.5758 30.6245 22.9156C30.6245 15.6617 36.5072 9.77872 43.7614 9.77872Z" fill="#C72E2E"/>
<path d="M46.4201 65.8386C45.4687 67.4814 44.5723 69.0293 43.7575 70.4517L34.4967 54.3071L34.4632 54.2487L34.4155 54.2013C34.4182 54.2039 34.4167 54.202 34.4108 54.1937C34.3969 54.1743 34.3582 54.1202 34.2894 54.0103C34.2037 53.8733 34.0927 53.6851 33.9587 53.45C33.6912 52.9805 33.3409 52.3389 32.9347 51.5785C32.1228 50.0584 31.0936 48.0745 30.0689 46.0664C29.0444 44.0586 28.0256 42.0289 27.2345 40.4176C26.4506 38.8209 25.9123 37.6785 25.7936 37.3494C25.7454 37.153 25.6635 36.9746 25.5613 36.8154C24.3037 33.9822 23.2524 31.3152 22.5154 28.9478C21.773 26.5631 21.3593 24.5127 21.3593 22.9149C21.3593 16.7285 23.8654 11.1276 27.9197 7.07767L27.9199 7.07748C41.9957 -6.99834 66.1603 3.0246 66.1603 22.9149C66.1603 25.3743 65.227 28.7941 63.6674 32.7915C62.1137 36.7739 59.9609 41.2747 57.5692 45.8762C53.9674 52.8055 49.839 59.9347 46.4201 65.8386ZM50.8415 15.8536L50.8415 15.8536C54.7557 19.7674 54.7555 26.0891 50.8416 29.9992L50.8414 29.9994C44.5514 36.2899 33.742 31.8137 33.742 22.9154C33.742 14.0194 44.5494 9.56145 50.8415 15.8536ZM53.4041 32.5583C61.9775 23.9848 55.8661 9.27872 43.7614 9.27872C36.2311 9.27872 30.1245 15.3856 30.1245 22.9156C30.1245 35.0205 44.8308 41.1316 53.4041 32.5583Z" stroke="black"/>
</g>
<path fill-rule="evenodd" clip-rule="evenodd" d="M44.1609 10.1646C55.5773 10.1646 61.0428 24.0141 52.9575 32.1842C44.8722 40.3541 31 34.53 31 22.9939C31 15.8172 37.0583 10.1646 44.1609 10.1646Z" fill="white"/>
<defs>
<filter id="filter0_d_204_413" x="16.8593" y="0" width="53.801" height="79.4579" filterUnits="userSpaceOnUse" color-interpolation-filters="sRGB">
<feFlood flood-opacity="0" result="BackgroundImageFix"/>
<feColorMatrix in="SourceAlpha" type="matrix" values="0 0 0 0 0 0 0 0 0 0 0 0 0 0 0 0 0 0 127 0" result="hardAlpha"/>
<feOffset dy="4"/>
<feGaussianBlur stdDeviation="2"/>
<feComposite in2="hardAlpha" operator="out"/>
<feColorMatrix type="matrix" values="0 0 0 0 0 0 0 0 0 0 0 0 0 0 0 0 0 0 0.25 0"/>
<feBlend mode="normal" in2="BackgroundImageFix" result="effect1_dropShadow_204_413"/>
<feBlend mode="normal" in="SourceGraphic" in2="effect1_dropShadow_204_413" result="shape"/>
</filter>
</defs>
</svg>
